<svg xmlns="http://www.w3.org/2000/svg" width="16.554" height="15.179" viewBox="0 0 16.554 15.179">
  <path id="Path_223" data-name="Path 223" d="M15.692,34.708h-.426a2.566,2.566,0,0,1,0-2.087h.426a.862.862,0,0,0,0-1.724H13.977a1.411,1.411,0,0,0,.351-.932v-2.7a1.419,1.419,0,0,0-1.417-1.417h-.7a.877.877,0,0,0-.784-1.269h-.24a2,2,0,0,1,0-1.572h.24a.877.877,0,0,0,0-1.754H3.25a2.538,2.538,0,0,0-1.8,4.335,2.584,2.584,0,0,0,.3.26H1.571a.862.862,0,0,0,0,1.724H2a2.566,2.566,0,0,1,0,2.087H1.571a.861.861,0,0,0-.709,1.352A1.419,1.419,0,0,0,0,32.315v2.7a1.418,1.418,0,0,0,1.416,1.417H15.692a.862.862,0,0,0,0-1.724Zm0-3.326a.377.377,0,0,1,0,.754H11.316a.242.242,0,1,0,0,.485h3.43a3.145,3.145,0,0,0-.175.8,2.727,2.727,0,0,0,.175,1.286H1.794a.071.071,0,0,1-.07-.07V32.692a.071.071,0,0,1,.07-.07H4.2v.8a.343.343,0,0,0,.173.367.348.348,0,0,0,.4-.1l0,0,.678-.646.678.646,0,0a.413.413,0,0,0,.278.127.289.289,0,0,0,.128-.03.342.342,0,0,0,.171-.368v-.8h3.407a.242.242,0,0,0,0-.485H6.714v-.754h8.977Zm-13-3.01a3.149,3.149,0,0,0-.176-.8H12.534a.071.071,0,0,1,.07.07v1.946a.071.071,0,0,1-.07.07H6.715v-.8h1.7a.242.242,0,0,0,0-.485H2.693Zm1.5,1.286H2.516a3.171,3.171,0,0,0,.176-.8H4.2Zm2.035-.8,0,4.248-.606-.578a.242.242,0,0,0-.335,0l-.606.578V28.858h1.55ZM1.194,23.793A2.057,2.057,0,0,1,3.25,21.738h8.18a.392.392,0,0,1,0,.784H6.96a.242.242,0,0,0,0,.485h3.713a2.467,2.467,0,0,0,0,1.572H3.25a.786.786,0,1,1,0-1.572H5.766a.242.242,0,0,0,0-.485H3.25a1.271,1.271,0,0,0,0,2.542h8.18a.392.392,0,0,1,0,.784H3.25a2.059,2.059,0,0,1-2.056-2.056Zm.377,3.295a.377.377,0,0,1,0-.754h11.34a.933.933,0,0,1,.932.932v2.7a.933.933,0,0,1-.932.932h-6.2v-.754h5.819a.556.556,0,0,0,.555-.555V27.642a.556.556,0,0,0-.555-.555H1.571Zm0,3.057H4.2V30.9H1.571a.377.377,0,0,1,0-.754Zm14.12,5.8H1.416a.933.933,0,0,1-.931-.932v-2.7a.933.933,0,0,1,.931-.932H4.2v.754h-2.4a.556.556,0,0,0-.555.555v1.946a.556.556,0,0,0,.555.555h13.9a.377.377,0,0,1,0,.754Z" transform="translate(0 -21.253)" fill="#ff7c00"/>
</svg>
