<svg id="calendar" xmlns="http://www.w3.org/2000/svg" width="13.243" height="13.243" viewBox="0 0 13.243 13.243">
  <path id="Path_218" data-name="Path 218" d="M11.726,54.8H1.518A1.518,1.518,0,0,1,0,53.279v-9.1a1.518,1.518,0,0,1,1.518-1.516H11.726a1.518,1.518,0,0,1,1.518,1.516v9.1A1.518,1.518,0,0,1,11.726,54.8ZM1.518,43.495a.69.69,0,0,0-.69.689v9.1a.69.69,0,0,0,.69.689H11.726a.69.69,0,0,0,.69-.689v-9.1a.69.69,0,0,0-.69-.689Zm0,0" transform="translate(0 -41.552)" fill="#ff7c00"/>
  <path id="Path_219" data-name="Path 219" d="M12.83,171.5H.414a.419.419,0,0,1,0-.837H12.83a.419.419,0,0,1,0,.837Zm0,0" transform="translate(0 -166.257)" fill="#ff7c00"/>
  <path id="Path_220" data-name="Path 220" d="M107.086,3.348a.419.419,0,0,1-.418-.418V.418a.418.418,0,0,1,.837,0V2.929A.419.419,0,0,1,107.086,3.348Zm0,0" transform="translate(-103.911)" fill="#ff7c00"/>
  <path id="Path_221" data-name="Path 221" d="M373.75,3.348a.419.419,0,0,1-.418-.418V.418a.418.418,0,0,1,.837,0V2.929A.419.419,0,0,1,373.75,3.348Zm0,0" transform="translate(-363.683)" fill="#ff7c00"/>
</svg>
