<svg xmlns="http://www.w3.org/2000/svg" width="236.807" height="176.449" viewBox="0 0 236.807 176.449">
  <g id="Secure_data-rafiki" data-name="Secure data-rafiki" transform="translate(0 -55)">
    <g id="freepik--background-complete--inject-138" transform="translate(0 55)">
      <rect id="Rectangle_39" data-name="Rectangle 39" width="236.807" height="0.118" transform="translate(0 155.061)" fill="#ebebeb"/>
      <rect id="Rectangle_40" data-name="Rectangle 40" width="15.686" height="0.118" transform="translate(24.846 159.57)" fill="#ebebeb"/>
      <rect id="Rectangle_41" data-name="Rectangle 41" width="16.34" height="0.118" transform="translate(68.83 158.286)" fill="#ebebeb"/>
      <rect id="Rectangle_42" data-name="Rectangle 42" width="26.248" height="0.118" transform="translate(36.033 161.857)" fill="#ebebeb"/>
      <rect id="Rectangle_43" data-name="Rectangle 43" width="20.455" height="0.118" transform="translate(192.117 162.293)" fill="#ebebeb"/>
      <rect id="Rectangle_44" data-name="Rectangle 44" width="10.846" height="0.118" transform="translate(175.441 159.333)" fill="#ebebeb"/>
      <rect id="Rectangle_45" data-name="Rectangle 45" width="44.368" height="0.118" transform="translate(92.653 161.232)" fill="#ebebeb"/>
      <path id="Path_224" data-name="Path 224" d="M132.36,188.938H40.91a2.7,2.7,0,0,1-2.7-2.7V57.681A2.7,2.7,0,0,1,40.91,55h91.45a2.7,2.7,0,0,1,2.7,2.7V186.234A2.7,2.7,0,0,1,132.36,188.938ZM40.91,55.095a2.586,2.586,0,0,0-2.581,2.586V186.234a2.586,2.586,0,0,0,2.581,2.586h91.45a2.591,2.591,0,0,0,2.586-2.586V57.681a2.591,2.591,0,0,0-2.586-2.586Z" transform="translate(-20.113 -55)" fill="#ebebeb"/>
      <path id="Path_225" data-name="Path 225" d="M348.659,188.938H257.2a2.709,2.709,0,0,1-2.7-2.7V57.681A2.709,2.709,0,0,1,257.2,55h91.455a2.7,2.7,0,0,1,2.695,2.681V186.234A2.7,2.7,0,0,1,348.659,188.938ZM257.2,55.095a2.591,2.591,0,0,0-2.586,2.586V186.234a2.591,2.591,0,0,0,2.586,2.586h91.455a2.591,2.591,0,0,0,2.586-2.586V57.681a2.591,2.591,0,0,0-2.586-2.586Z" transform="translate(-133.965 -55)" fill="#ebebeb"/>
      <rect id="Rectangle_46" data-name="Rectangle 46" width="7.204" height="27.91" transform="translate(69.849 123.547) rotate(180)" fill="#e6e6e6"/>
      <path id="Path_226" data-name="Path 226" d="M91.05,279.545h23.9l3.609-32.665h-23.9Z" transform="translate(-47.927 -156.003)" fill="#f0f0f0"/>
      <path id="Path_227" data-name="Path 227" d="M85.58,279.545h24.689l3.609-32.665H89.189Z" transform="translate(-45.048 -156.003)" fill="#f5f5f5"/>
      <path id="Path_228" data-name="Path 228" d="M111.1,279.832l3.041-27.522H93.591L90.55,279.832Z" transform="translate(-47.664 -158.861)" fill="#fff"/>
      <path id="Path_229" data-name="Path 229" d="M114.738,280.575l.128-1.118c.763-6.905-3.552-13.058-9.15-13.058h0l-.123,1.122c-.763,6.9,3.547,13.053,9.145,13.053Z" transform="translate(-55.536 -166.278)" fill="#f5f5f5"/>
      <rect id="Rectangle_47" data-name="Rectangle 47" width="141.634" height="51.368" transform="translate(192.657 69.081) rotate(180)" fill="#e6e6e6"/>
      <rect id="Rectangle_48" data-name="Rectangle 48" width="143.008" height="51.368" transform="translate(191.454 69.081) rotate(180)" fill="#f0f0f0"/>
      <rect id="Rectangle_49" data-name="Rectangle 49" width="141.634" height="4.788" transform="translate(192.657 73.869) rotate(180)" fill="#e6e6e6"/>
      <rect id="Rectangle_50" data-name="Rectangle 50" width="143.008" height="4.788" transform="translate(187.158 73.869) rotate(180)" fill="#f0f0f0"/>
      <rect id="Rectangle_51" data-name="Rectangle 51" width="44.155" height="135.794" transform="translate(187.845 21.322) rotate(90)" fill="#fafafa"/>
      <path id="Path_230" data-name="Path 230" d="M329.123,144.175,311.472,100.02H295.98l17.652,44.155Z" transform="translate(-155.8 -78.698)" fill="#fff"/>
      <path id="Path_231" data-name="Path 231" d="M167.6,144.175,149.947,100.02h-15.5L152.1,144.175Z" transform="translate(-70.773 -78.698)" fill="#fff"/>
      <path id="Path_232" data-name="Path 232" d="M299.885,144.175,282.233,100.02H276.19l17.652,44.155Z" transform="translate(-145.383 -78.698)" fill="#fff"/>
      <rect id="Rectangle_52" data-name="Rectangle 52" width="44.155" height="0.459" transform="translate(52.51 21.322) rotate(90)" fill="#e6e6e6"/>
      <rect id="Rectangle_53" data-name="Rectangle 53" width="21.237" height="31.519" transform="translate(48.413 155.061) rotate(180)" fill="#e6e6e6"/>
      <path id="Path_233" data-name="Path 233" d="M59.516,375.646H57.38V369.57h4.376Z" transform="translate(-30.204 -220.585)" fill="#f0f0f0"/>
      <rect id="Rectangle_54" data-name="Rectangle 54" width="21.237" height="31.519" transform="translate(107.932 155.061) rotate(180)" fill="#e6e6e6"/>
      <rect id="Rectangle_55" data-name="Rectangle 55" width="61.385" height="27.787" transform="translate(88.561 151.334) rotate(180)" fill="#f0f0f0"/>
      <path id="Path_234" data-name="Path 234" d="M179.99,375.646h2.136V369.57H177.75Z" transform="translate(-93.565 -220.585)" fill="#f0f0f0"/>
      <rect id="Rectangle_56" data-name="Rectangle 56" width="58.07" height="11.215" transform="translate(86.903 136.495) rotate(180)" fill="#e6e6e6"/>
      <path id="Path_235" data-name="Path 235" d="M104.12,330.747h7.744a12.252,12.252,0,0,0,8.894-3.826H95.23a12.238,12.238,0,0,0,8.89,3.827Z" transform="translate(-50.128 -198.135)" fill="#f0f0f0"/>
      <rect id="Rectangle_57" data-name="Rectangle 57" width="58.07" height="11.215" transform="translate(86.903 149.52) rotate(180)" fill="#e6e6e6"/>
      <path id="Path_236" data-name="Path 236" d="M104.12,358.207h7.744a12.252,12.252,0,0,0,8.894-3.826H95.23A12.238,12.238,0,0,0,104.12,358.207Z" transform="translate(-50.128 -212.59)" fill="#f0f0f0"/>
      <path id="Path_237" data-name="Path 237" d="M318.264,287.725a.445.445,0,0,0-.44-.355H300.778a.44.44,0,0,0-.436.355l-6.062,44.652h.914l5.939-44.112h16.321l5.939,44.112h.919Z" transform="translate(-154.905 -177.316)" fill="#f0f0f0"/>
      <path id="Path_238" data-name="Path 238" d="M387.984,287.725a.445.445,0,0,0-.44-.355h-17.05a.445.445,0,0,0-.44.355L364,332.377h.914l5.939-44.112h16.325l5.939,44.112h.914Z" transform="translate(-191.605 -177.316)" fill="#f0f0f0"/>
      <path id="Path_239" data-name="Path 239" d="M350.893,280.17H297.251c-2.562,0-4.641,1.231-4.641,2.756v.095c0,.554.758,1,1.691,1h59.538c.947,0,1.7-.45,1.7-1v-.09C355.534,281.4,353.455,280.17,350.893,280.17Z" transform="translate(-154.026 -173.526)" fill="#e0e0e0"/>
      <path id="Path_240" data-name="Path 240" d="M377.468,233.5H342l-5.139,20.948h35.469Z" transform="translate(-177.319 -148.96)" fill="#e6e6e6"/>
      <path id="Path_241" data-name="Path 241" d="M372.166,277.73l-.147,1.156H336.55l.142-1.156Z" transform="translate(-177.155 -172.242)" fill="#e6e6e6"/>
      <path id="Path_242" data-name="Path 242" d="M375.162,233.5H339.693l-5.143,20.948h35.469Z" transform="translate(-176.103 -148.96)" fill="#f0f0f0"/>
      <path id="Path_243" data-name="Path 243" d="M370.629,254.55l4.67-19.03H341.8l-4.67,19.03Z" transform="translate(-177.461 -150.023)" fill="#fff"/>
      <path id="Path_244" data-name="Path 244" d="M346.361,277.73l-.142,1.156H307.16l.142-1.156Z" transform="translate(-161.685 -172.242)" fill="#f0f0f0"/>
      <path id="Path_245" data-name="Path 245" d="M177.973,287.352h.545c0-1.132,0-4,.062-10.566.095-11.911.284-12.636.284-12.636l-1.307,5.5C176.733,275.735,177.8,281.854,177.973,287.352Z" transform="translate(-93.301 -165.094)" fill="#e6e6e6"/>
      <path id="Path_246" data-name="Path 246" d="M165.055,270.152c-1.894-2.24-5.9-2.894-10.012-3.453-1.615-.218,4.263,3.472,7.1,6.091,2.221,2.037,3.642,2.6,4.263,4.627C166.718,274.889,166.675,272.094,165.055,270.152Z" transform="translate(-81.467 -166.431)" fill="#e6e6e6"/>
      <path id="Path_247" data-name="Path 247" d="M180.074,278.638c1.894-2.24,5.9-2.889,10.012-3.448,1.615-.218-4.263,3.472-7.1,6.091-2.221,2.037-3.647,2.6-4.263,4.627C178.4,283.379,178.454,280.57,180.074,278.638Z" transform="translate(-93.995 -170.9)" fill="#e6e6e6"/>
      <path id="Path_248" data-name="Path 248" d="M178.971,256.136c1.421-2.681,4.959-5.21,8.937-6.157,1.563-.374-3.618,4.945-5.589,8.378-1.53,2.662-3.562,5.8-3.874,8.051C177.967,261.966,177.565,258.831,178.971,256.136Z" transform="translate(-93.697 -157.625)" fill="#e6e6e6"/>
      <path id="Path_249" data-name="Path 249" d="M175.873,311.676h0c-1.677,0-3.069-.838-3.164-1.918l-.279-1.838h6.9l-.279,1.838C178.942,310.837,177.555,311.676,175.873,311.676Z" transform="translate(-90.765 -188.134)" fill="#f0f0f0"/>
      <path id="Path_250" data-name="Path 250" d="M179.019,307.131h-7.777l-.223-2.051h8.222Z" transform="translate(-90.023 -186.639)" fill="#f0f0f0"/>
    </g>
    <g id="freepik--Shadow--inject-138" transform="translate(26.574 220.727)">
      <ellipse id="freepik--path--inject-138" cx="91.829" cy="5.361" rx="91.829" ry="5.361" fill="#f5f5f5"/>
    </g>
    <g id="freepik--Character--inject-138" transform="translate(132.635 82.152)">
      <path id="Path_251" data-name="Path 251" d="M307.279,389.473l-3.6-.881,1.075-8.572,3.6.881Z" transform="translate(-292.488 -253.238)" fill="#ffb573"/>
      <path id="Path_252" data-name="Path 252" d="M370.193,398.707h-3.708L363.6,390.12h3.7Z" transform="translate(-324.03 -258.555)" fill="#ffb573"/>
      <path id="Path_253" data-name="Path 253" d="M361.021,407.34h4.518a.327.327,0,0,1,.317.251l.734,3.315a.545.545,0,0,1-.545.658c-1.454-.024-2.515-.109-4.348-.109-1.127,0-4.523.118-6.081.118s-1.757-1.539-1.122-1.681c2.842-.62,5.011-1.482,5.925-2.306a.9.9,0,0,1,.6-.246Z" transform="translate(-319.059 -267.619)" fill="#263238"/>
      <path id="Path_254" data-name="Path 254" d="M293.547,397.224l3.931.947a.327.327,0,0,1,.246.322l-.071,3.377a.535.535,0,0,1-.673.512c-1.421-.369-3.443-.947-5.21-1.388-2.084-.512-3.912-.838-6.356-1.421-1.478-.36-1.525-1.956-.871-1.937,2.965.071,5.286.568,8.085-.341a1.71,1.71,0,0,1,.919-.071Z" transform="translate(-282.204 -262.277)" fill="#263238"/>
      <path id="Path_255" data-name="Path 255" d="M313.591,170.9c-.256.767-.5,1.421-.781,2.127s-.559,1.369-.857,2.046c-.592,1.355-1.25,2.681-1.97,4a38.64,38.64,0,0,1-2.415,3.855,22.493,22.493,0,0,1-3.154,3.6c-.317.279-.635.559-.99.819-.189.137-.327.251-.559.4a7.4,7.4,0,0,1-.682.407,6.6,6.6,0,0,1-3.2.772,7.578,7.578,0,0,1-2.96-.673,11.077,11.077,0,0,1-2.254-1.373,18.472,18.472,0,0,1-3.268-3.415,19.424,19.424,0,0,1-1.269-1.894,20.969,20.969,0,0,1-1.1-1.989l2.368-1.468c.407.474.876,1,1.331,1.487s.947.947,1.421,1.421a17.2,17.2,0,0,0,2.988,2.3,4.566,4.566,0,0,0,2.648.786,2.013,2.013,0,0,0,.852-.341,2.1,2.1,0,0,0,.213-.161c.062-.047.194-.166.284-.246a7.664,7.664,0,0,0,.62-.587,27.4,27.4,0,0,0,4.206-6.342c.611-1.189,1.175-2.415,1.724-3.647.27-.62.535-1.246.786-1.871s.507-1.279.72-1.847Z" transform="translate(-284.303 -142.192)" fill="#ffb573"/>
      <path id="Path_256" data-name="Path 256" d="M329.963,165.618c.791,3.453-6.782,12.29-6.782,12.29l-6.811-4.982a45.161,45.161,0,0,1,5.4-8.051C324.9,161.375,329.087,161.829,329.963,165.618Z" transform="translate(-299.168 -138.736)" fill="#407bff"/>
      <path id="Path_257" data-name="Path 257" d="M326.894,177.334A35.7,35.7,0,0,0,325,181.843l2.723,1.989s4.5-5.243,6.195-9.235C331.872,172.84,328.675,173.839,326.894,177.334Z" transform="translate(-303.711 -144.66)" opacity="0.2"/>
      <path id="Path_258" data-name="Path 258" d="M288.72,186.706l-1.729-2.316-2.932,3.457a4.258,4.258,0,0,0,3.974,1.085Z" transform="translate(-282.161 -150.261)" fill="#ffb573"/>
      <path id="Path_259" data-name="Path 259" d="M281.021,181.7l-.971,3.969,1.9.763,2.932-3.457Z" transform="translate(-280.05 -148.845)" fill="#ffb573"/>
      <path id="Path_260" data-name="Path 260" d="M305.334,380.02l-.554,4.424,3.6.876.554-4.419Z" transform="translate(-293.068 -253.238)" opacity="0.2"/>
      <path id="Path_261" data-name="Path 261" d="M367.308,390.12H363.6l1.487,4.428H368.8Z" transform="translate(-324.03 -258.555)" opacity="0.2"/>
      <path id="Path_262" data-name="Path 262" d="M351.967,164.826a83.261,83.261,0,0,0-3.135,12.02c-.535,2.842-.947,5.565-1.212,8.051-.682,5.8-.838,10.24-1.108,11.731l-19.65-2.647c-1.331-21.218,4.5-31.732,4.5-31.732a37.889,37.889,0,0,1,4.76-.279c.336,0,.677,0,1.023.024a73.265,73.265,0,0,1,8.355,1.122c.526.1,1.056.208,1.568.327C349.679,164.035,351.967,164.826,351.967,164.826Z" transform="translate(-304.586 -138.459)" fill="#407bff"/>
      <path id="Path_263" data-name="Path 263" d="M343.066,173.591c-3.6-.474-5.21.568-5.5,1.894-1.156,5.172,2.842,9.989,2.842,9.989s5.868-3.557,7.024-8.729C347.731,175.419,346.66,174.05,343.066,173.591Z" transform="translate(-310.216 -144.516)" opacity="0.2"/>
      <path id="Path_264" data-name="Path 264" d="M342.265,185.114c-.985-1.52-2.7-4.736-1.97-8.051.137-.6,1.53-1.051,3.931-.744s3.519,1.08,3.386,1.681C346.878,181.325,343.852,183.935,342.265,185.114Z" transform="translate(-311.669 -145.961)" fill="#fff"/>
      <path id="Path_265" data-name="Path 265" d="M369.169,193.38c-.535,2.842-.947,5.565-1.212,8.051l-2.657-6.148Z" transform="translate(-324.924 -154.994)" opacity="0.2"/>
      <path id="Path_266" data-name="Path 266" d="M357.15,144.28c-.89,2.614-2.079,7.469-.44,9.515a8.421,8.421,0,0,1-6.787,1.719c-2.307-.36-2.2-1.994-1.568-2.818,3.093-.313,3.315-2.548,3.078-4.708Z" transform="translate(-315.799 -129.148)" fill="#ffb573"/>
      <path id="Path_267" data-name="Path 267" d="M358.676,147.46l-3.386,2.179a8.615,8.615,0,0,1,.057,1.516,3.7,3.7,0,0,0,3.192-2.235A4.139,4.139,0,0,0,358.676,147.46Z" transform="translate(-319.655 -130.822)" opacity="0.2"/>
      <path id="Path_268" data-name="Path 268" d="M349.7,122.094c-2.87-.232-3.865,6.683-2.074,8.009S355.074,122.52,349.7,122.094Z" transform="translate(-315.148 -117.466)" fill="#263238"/>
      <path id="Path_269" data-name="Path 269" d="M357.091,129.1c-.715,3.609-.947,5.759-3.041,7.379a4.889,4.889,0,0,1-7.791-3.585c-.341-3.377.886-8.71,4.641-9.681a5.02,5.02,0,0,1,6.19,5.887Z" transform="translate(-314.873 -117.973)" fill="#ffb573"/>
      <path id="Path_270" data-name="Path 270" d="M365.724,133.669c-1.776,1.108-3.277-9.974,1.445-8.525C374.837,127.517,367.841,132.353,365.724,133.669Z" transform="translate(-324.245 -119.006)" fill="#263238"/>
      <path id="Path_271" data-name="Path 271" d="M354.261,120.524c-1.075-1.326-7.611-.526-10.623-2.5s-1.1-6.318,4.409-5.617c-2.567.3-2.1,2.439-.336,2.42s5.816-2.2,7.578-.341c2.458,2.586,3.689,1.051,4.916,2.52C362.005,119.117,356.592,123.408,354.261,120.524Z" transform="translate(-312.773 -112.33)" fill="#263238"/>
      <path id="Path_272" data-name="Path 272" d="M367.426,141.838a3.481,3.481,0,0,1-2.368,1.236c-1.222.1-1.606-1.047-1.07-2.079.474-.947,1.7-2.1,2.842-1.719A1.563,1.563,0,0,1,367.426,141.838Z" transform="translate(-324.11 -126.474)" fill="#ffb573"/>
      <path id="Path_273" data-name="Path 273" d="M302.288,304.02l6.1,1.468s3.931-20.777,5.754-32.206a120.836,120.836,0,0,1,3.287-13.4c1.894-6.46,4.182-13.432,6.043-18.883,1.965-5.745,3.438-9.809,3.438-9.809L314,229.45s-9.842,30.212-10.931,41.465C301.89,282.627,302.288,304.02,302.288,304.02Z" transform="translate(-291.722 -173.98)" fill="#263238"/>
      <path id="Path_274" data-name="Path 274" d="M334.31,269.471c1.894-6.46,4.182-13.432,6.043-18.883l-1.16-2.988C335.726,251.218,334.1,263,334.31,269.471Z" transform="translate(-308.603 -183.534)" opacity="0.2"/>
      <path id="Path_275" data-name="Path 275" d="M341.539,231.51s-.639,31.765.232,42.592c.947,11.84,9.842,36.1,9.842,36.1H358.4s-4.532-22.189-5.92-33.7c-1.582-13.119,1.733-43.279,1.733-43.279Z" transform="translate(-312.298 -175.065)" fill="#263238"/>
      <path id="Path_276" data-name="Path 276" d="M360.3,395.143H368.3v-2.387l-8.937-.156Z" transform="translate(-321.798 -259.86)" fill="#407bff"/>
      <path id="Path_277" data-name="Path 277" d="M300.391,383.831l7.265,1.776.573-2.349-8.089-2.108Z" transform="translate(-290.625 -253.833)" fill="#407bff"/>
      <path id="Path_278" data-name="Path 278" d="M356.452,135.757c-.038.294-.227.512-.422.474s-.322-.289-.279-.583.227-.516.422-.474S356.49,135.458,356.452,135.757Z" transform="translate(-319.894 -124.352)" fill="#263238"/>
      <path id="Path_279" data-name="Path 279" d="M349.382,134.791c-.043.3-.232.516-.426.474s-.317-.289-.275-.587.227-.516.422-.474S349.419,134.5,349.382,134.791Z" transform="translate(-316.172 -123.841)" fill="#263238"/>
      <path id="Path_280" data-name="Path 280" d="M350.417,136.07a10.654,10.654,0,0,1-1.757,2.368,1.729,1.729,0,0,0,1.383.474Z" transform="translate(-316.165 -124.826)" fill="#ed893e"/>
      <path id="Path_281" data-name="Path 281" d="M353.483,143.015a2.778,2.778,0,0,1-.388-.028.086.086,0,1,1,.024-.171,2.368,2.368,0,0,0,2.037-.663.09.09,0,0,1,.123,0,.085.085,0,0,1,0,.123A2.463,2.463,0,0,1,353.483,143.015Z" transform="translate(-318.459 -128.016)" fill="#263238"/>
      <path id="Path_282" data-name="Path 282" d="M358.224,133.114a.171.171,0,0,1-.152-.09,1.421,1.421,0,0,0-1.037-.734.175.175,0,0,1-.166-.185.18.18,0,0,1,.185-.166,1.757,1.757,0,0,1,1.321.909.175.175,0,0,1-.066.242.194.194,0,0,1-.085.024Z" transform="translate(-320.487 -122.652)" fill="#263238"/>
      <path id="Path_283" data-name="Path 283" d="M347.254,131.4a.2.2,0,0,1-.1-.028.18.18,0,0,1-.047-.246,1.752,1.752,0,0,1,1.383-.81.175.175,0,0,1,0,.35,1.369,1.369,0,0,0-1.089.654A.175.175,0,0,1,347.254,131.4Z" transform="translate(-315.332 -121.8)" fill="#263238"/>
      <path id="Path_284" data-name="Path 284" d="M365.06,407.653a1.132,1.132,0,0,1-.715-.189.53.53,0,0,1-.18-.474.279.279,0,0,1,.152-.251c.407-.208,1.606.526,1.738.611a.085.085,0,0,1,.043.09.09.09,0,0,1-.066.071A4.372,4.372,0,0,1,365.06,407.653Zm-.549-.767a.259.259,0,0,0-.114,0,.114.114,0,0,0-.057.1.346.346,0,0,0,.118.317,1.781,1.781,0,0,0,1.317.066A3.523,3.523,0,0,0,364.51,406.886Z" transform="translate(-324.324 -267.283)" fill="#407bff"/>
      <path id="Path_285" data-name="Path 285" d="M366.853,406.59h-.043c-.384-.208-1.127-1.023-1.047-1.421a.284.284,0,0,1,.279-.232.5.5,0,0,1,.374.114c.431.355.516,1.421.521,1.468a.057.057,0,0,1-.085.071Zm-.748-1.5h-.043c-.114,0-.123.066-.128.09-.047.246.426.857.81,1.146a2.088,2.088,0,0,0-.44-1.16A.3.3,0,0,0,366.1,405.088Z" transform="translate(-325.165 -266.353)" fill="#407bff"/>
      <path id="Path_286" data-name="Path 286" d="M300.633,396.742h0c-.611-.024-1.677-.133-1.989-.583a.5.5,0,0,1-.057-.45.284.284,0,0,1,.2-.194c.5-.142,1.762.947,1.894,1.075a.1.1,0,0,1,.024.1A.09.09,0,0,1,300.633,396.742Zm-1.776-1.066h-.038a.1.1,0,0,0-.076.076.327.327,0,0,0,.038.3,2.29,2.29,0,0,0,1.587.474A3.926,3.926,0,0,0,298.857,395.677Z" transform="translate(-289.792 -261.388)" fill="#407bff"/>
      <path id="Path_287" data-name="Path 287" d="M301.849,396.065a.09.09,0,0,1-.062,0c-.388-.3-1.056-1.293-.9-1.681.043-.095.137-.194.379-.161a.616.616,0,0,1,.436.26,2.5,2.5,0,0,1,.223,1.525.09.09,0,0,1-.057.066Zm-.7-1.686c-.076,0-.09.043-.095.057-.1.237.336.99.715,1.364a2.122,2.122,0,0,0-.2-1.227.474.474,0,0,0-.322-.194Z" transform="translate(-291.008 -260.711)" fill="#407bff"/>
      <path id="Path_288" data-name="Path 288" d="M362.212,176.5c-.062.7-.128,1.3-.218,1.942s-.185,1.26-.289,1.894q-.32,1.883-.777,3.742c-.3,1.241-.649,2.482-1.07,3.713a32.392,32.392,0,0,1-1.459,3.675l-.44.9-.028.057-.062.114-.128.227a4.559,4.559,0,0,1-.3.426,4.7,4.7,0,0,1-.691.71,5.135,5.135,0,0,1-1.449.838,7.675,7.675,0,0,1-1.317.36,13.734,13.734,0,0,1-4.343-.057,31.528,31.528,0,0,1-7.412-2.188l.791-2.676c1.151.152,2.368.3,3.524.4s2.33.18,3.443.171a10.77,10.77,0,0,0,2.955-.332c.369-.109.6-.3.54-.294a.161.161,0,0,0-.066.038l-.043.047-.024.028h0V190.2l.3-.767a44.641,44.641,0,0,0,1.814-6.593c.246-1.141.44-2.3.639-3.448q.147-.867.27-1.733l.232-1.7Z" transform="translate(-312.781 -145.824)" fill="#ffb573"/>
      <path id="Path_289" data-name="Path 289" d="M374.69,169.97c2.07,2.875-.322,11.736-.322,11.736l-9.728.313a68.164,68.164,0,0,1,2.231-10.192C368.434,167.091,372.175,166.489,374.69,169.97Z" transform="translate(-324.577 -141.501)" fill="#407bff"/>
      <path id="Path_290" data-name="Path 290" d="M341.065,204.472l-3.415-1.582v4.736s3.206.706,3.765-.947Z" transform="translate(-310.37 -160)" fill="#ffb573"/>
      <path id="Path_291" data-name="Path 291" d="M331.27,203.572l.171,3.917,2.832.133.019-4.731Z" transform="translate(-307.012 -160)" fill="#ffb573"/>
    </g>
    <g id="freepik--Notebook--inject-138" transform="translate(44.505 90.345)">
      <path id="Path_292" data-name="Path 292" d="M193.215,196.078H102.7a4.769,4.769,0,0,1-4.67-4.362l-4.045-57.724a4.021,4.021,0,0,1,4.054-4.362h90.5a4.774,4.774,0,0,1,4.67,4.362l4.064,57.724a4.021,4.021,0,0,1-4.054,4.362Z" transform="translate(-93.969 -129.629)" fill="#263238"/>
      <path id="Path_293" data-name="Path 293" d="M224.871,317.04H122.878c-2.7,0-5.432-1.748-6.053-3.865l-11.812-40.143c-.507-1.714,1.051-3.1,3.448-3.1h90.517c2.4,0,5.143,1.388,6.1,3.1l22.539,40.143C228.807,315.293,227.575,317.04,224.871,317.04Z" transform="translate(-99.733 -203.482)" fill="#263238"/>
      <path id="Path_294" data-name="Path 294" d="M195.495,196.078H104.982a4.765,4.765,0,0,1-4.67-4.362l-4.068-57.724a4.026,4.026,0,0,1,4.054-4.362h90.517a4.769,4.769,0,0,1,4.67,4.362l4.068,57.724a4.026,4.026,0,0,1-4.059,4.362Z" transform="translate(-95.159 -129.629)" fill="#407bff"/>
      <path id="Path_295" data-name="Path 295" d="M109.847,196.488A1.894,1.894,0,0,1,108,194.764l-3.926-55.735a1.587,1.587,0,0,1,1.6-1.719H194.2a1.894,1.894,0,0,1,1.842,1.719l3.926,55.735a1.591,1.591,0,0,1-1.6,1.724Z" transform="translate(-99.285 -133.672)" fill="#fff"/>
      <ellipse id="Ellipse_5" data-name="Ellipse 5" cx="0.649" cy="0.696" rx="0.649" ry="0.696" transform="translate(49.582 1.907) rotate(-45.99)" opacity="0.2"/>
      <path id="Path_296" data-name="Path 296" d="M227.177,317.04h-102c-2.7,0-5.428-1.748-6.053-3.865l-11.812-40.143c-.5-1.714,1.051-3.1,3.453-3.1H201.28c2.4,0,5.143,1.388,6.1,3.1l22.535,40.143C231.108,315.293,229.882,317.04,227.177,317.04Z" transform="translate(-100.945 -203.482)" fill="#407bff"/>
      <path id="Path_297" data-name="Path 297" d="M124.062,298.479A2.412,2.412,0,0,1,121.8,297.1l-6.223-20.465c-.208-.677.4-1.231,1.359-1.231h89.139a2.979,2.979,0,0,1,2.415,1.231l11.3,20.474c.417.758-.066,1.383-1.08,1.383Z" transform="translate(-105.321 -206.361)" opacity="0.2"/>
      <path id="Path_298" data-name="Path 298" d="M212.287,345.147a1.658,1.658,0,0,1-1.468-.881l-5.21-13.337c-.175-.45.166-.819.763-.819H233.6a1.714,1.714,0,0,1,1.463.819l6.19,13.337c.227.474-.095.881-.71.881Z" transform="translate(-152.711 -235.16)" opacity="0.2"/>
      <path id="Path_299" data-name="Path 299" d="M198.01,160.019l2.079,3.2,2.079,3.2h7.384l1.61-3.2,1.615-3.192-2.079-3.2-2.079-3.2h-7.384l-1.615,3.192Z" transform="translate(-148.735 -142.263)" fill="none"/>
      <path id="Path_300" data-name="Path 300" d="M224.838,152.758h7.379l1.615-3.2,1.61-3.192-2.079-3.2-2.079-3.2h-7.379l-1.615,3.2-1.61,3.192,2.074,3.2Z" transform="translate(-160.668 -135.073)" fill="none"/>
      <path id="Path_301" data-name="Path 301" d="M252.505,208.26l-1.615,3.192-1.61,3.2,2.079,3.2,2.079,3.2h7.379l1.615-3.2,1.615-3.192-2.079-3.2-2.079-3.2Z" transform="translate(-175.723 -171.019)" fill="none"/>
      <path id="Path_302" data-name="Path 302" d="M250.525,180.94l-1.61,3.2-1.615,3.192,2.079,3.2,2.079,3.2h7.384l1.61-3.192,1.615-3.2-2.079-3.2-2.079-3.2Z" transform="translate(-174.681 -156.639)" fill="none"/>
      <path id="Path_303" data-name="Path 303" d="M245.32,160.019l2.079,3.2,2.079,3.2h7.384l1.61-3.2,1.615-3.192-2.079-3.2-2.079-3.2h-7.384l-1.61,3.192Z" transform="translate(-173.638 -142.263)" fill="none"/>
      <path id="Path_304" data-name="Path 304" d="M139.572,180.068l1.61-3.192,1.615-3.2-2.079-3.2-2.079-3.2h-7.384l-1.61,3.2-1.615,3.2,2.079,3.2,2.079,3.2Z" transform="translate(-111.898 -149.448)" fill="none"/>
      <path id="Path_305" data-name="Path 305" d="M150.7,160.019l2.079,3.2,2.079,3.2h7.379l1.615-3.2,1.615-3.192-2.079-3.2-2.079-3.2h-7.384l-1.615,3.192Z" transform="translate(-123.832 -142.263)" fill="none"/>
      <path id="Path_306" data-name="Path 306" d="M136.148,234.708h7.379l1.615-3.2,1.615-3.192-2.079-3.2-2.079-3.2h-7.384l-1.61,3.192-1.615,3.2,2.079,3.2Z" transform="translate(-113.983 -178.21)" fill="none"/>
      <path id="Path_307" data-name="Path 307" d="M177.518,152.758H184.9l1.615-3.2,1.61-3.192-2.079-3.2-2.079-3.2H176.59l-1.615,3.2-1.615,3.192,2.079,3.2Z" transform="translate(-135.76 -135.073)" fill="none"/>
      <path id="Path_308" data-name="Path 308" d="M141.552,207.388l1.61-3.2L144.777,201l-2.079-3.2-2.079-3.2h-7.384l-1.61,3.2-1.615,3.192,2.079,3.2,2.079,3.2Z" transform="translate(-112.941 -163.829)" fill="none"/>
      <path id="Path_309" data-name="Path 309" d="M203.215,180.94l-1.615,3.2-1.61,3.192,2.079,3.2,2.079,3.2h7.379l1.615-3.192,1.615-3.2-2.079-3.2-2.079-3.2Z" transform="translate(-149.777 -156.639)" fill="none"/>
      <path id="Path_310" data-name="Path 310" d="M226.245,197.8l-1.615,3.192,2.079,3.2,2.079,3.2h7.384l1.615-3.2L239.4,201l-2.079-3.2-2.079-3.2h-7.384Z" transform="translate(-162.747 -163.829)" fill="none"/>
      <path id="Path_311" data-name="Path 311" d="M187.929,194.6h-7.384l-1.61,3.2-1.615,3.192,2.079,3.2,2.079,3.2h7.384l1.61-3.2L192.087,201l-2.079-3.2Z" transform="translate(-137.844 -163.829)" fill="none"/>
      <path id="Path_312" data-name="Path 312" d="M137.592,152.758l1.61-3.2,1.615-3.192-2.079-3.2-2.079-3.2h-7.384l-1.61,3.2-1.615,3.192,2.079,3.2,2.079,3.2Z" transform="translate(-110.856 -135.073)" fill="none"/>
      <path id="Path_313" data-name="Path 313" d="M169.423,214.659l-2.079-3.2-2.074-3.2h-7.384l-1.615,3.192-1.61,3.2,2.074,3.2,2.079,3.2H166.2l1.615-3.2Z" transform="translate(-125.916 -171.019)" fill="none"/>
      <path id="Path_314" data-name="Path 314" d="M237.423,173.679l-2.079-3.2-2.079-3.2h-7.379l-1.615,3.2-1.61,3.2,2.074,3.2,2.079,3.2H234.2l1.615-3.192Z" transform="translate(-161.71 -149.448)" fill="none"/>
      <path id="Path_315" data-name="Path 315" d="M237.219,221.92h-7.384l-1.61,3.192-1.615,3.2,2.079,3.2,2.079,3.2h7.384l1.61-3.2,1.615-3.192-2.079-3.2Z" transform="translate(-163.79 -178.21)" fill="none"/>
      <path id="Path_316" data-name="Path 316" d="M189.909,221.92h-7.384l-1.61,3.192-1.615,3.2,2.079,3.2,2.079,3.2h7.384l1.61-3.2,1.615-3.192-2.079-3.2Z" transform="translate(-138.886 -178.21)" fill="none"/>
      <path id="Path_317" data-name="Path 317" d="M216.737,214.659l-2.084-3.2-2.074-3.2H205.2l-1.615,3.192-1.61,3.2,2.079,3.2,2.079,3.2h7.379l1.615-3.2Z" transform="translate(-150.819 -171.019)" fill="none"/>
      <path id="Path_318" data-name="Path 318" d="M185.949,167.28h-7.384l-1.61,3.2-1.615,3.2,2.079,3.2,2.079,3.2h7.384l1.615-3.192,1.61-3.2-2.079-3.2Z" transform="translate(-136.802 -149.448)" fill="none"/>
      <path id="Path_319" data-name="Path 319" d="M155.905,180.94l-1.615,3.2-1.61,3.192,2.079,3.2,2.079,3.2h7.379l1.615-3.192,1.61-3.2-2.074-3.2-2.079-3.2Z" transform="translate(-124.874 -156.639)" fill="none"/>
      <path id="Path_320" data-name="Path 320" d="M107.678,188.28l2.235-4.433H117.3l2.079,3.2,2.079,3.2-1.615,3.2-1.535,3.045h.166l1.5-2.974,1.615-3.2h7.384l2.079,3.2,1.928,2.97h.18l-1.994-3.05-2.079-3.2,1.615-3.192,1.615-3.2h7.374l2.079,3.2,2.079,3.2-1.61,3.2-1.539,3.045h.166l1.506-2.974,1.61-3.2h7.384l2.079,3.2,1.928,2.97h.18l-1.98-3.05-2.041-3.2,1.61-3.192,1.615-3.2h7.379l2.079,3.2,2.079,3.2-1.61,3.2-1.539,3.045h.166l1.482-2.965,1.61-3.2h7.388l2.079,3.2,1.928,2.97h.18l-1.98-3.05-2.079-3.2,1.61-3.192,1.615-3.2h7.384l2.079,3.2,2.079,3.2-1.634,3.187-1.539,3.045h.171l1.5-2.974,1.61-3.2h7.4l2.079,3.2,1.516,2.33.095-.128-1.463-2.283-2.079-3.2,1.61-3.192,1.421-2.842v-.289l-1.539,3.05-1.615,3.2H188.8l-2.079-3.2-2.079-3.2,1.615-3.2,1.61-3.192h7.384l4.068,6.256-.024-.308-3.917-6.029,3.064-6.072v-.294l-3.178,6.294h-7.4l-2.079-3.2-2.079-3.2,1.615-3.192,1.615-3.2h7.379l4.1,6.313-.024-.308-3.945-6.076,3.088-6.114v-.289l-3.2,6.337h-7.4l-2.079-3.2-2.065-3.2,1.61-3.2,1.615-3.192H193.4l4.12,6.342v-.308l-3.978-6.114,3.112-6.157v-.289l-3.277,6.389h-7.379l-2.079-3.2-2.074-3.211,1.61-3.2,1.61-3.178h7.384l2.079,3.2,2.07,3.192v-.308l-1.965-2.974-2.079-3.2.6-1.179h-.166l-.559,1.108h-7.365l-.725-1.108h-.175l.772,1.189-1.615,3.2-1.61,3.192H174.32l-2.079-3.2-2.079-3.2.6-1.179h-.166l-.564,1.108H162.65l-.7-1.108h-.175l.772,1.189-1.615,3.2-1.61,3.192h-7.407l-2.079-3.2-2.093-3.2.6-1.179h-.166l-.564,1.108h-7.369l-.72-1.108h-.18l.777,1.189-1.615,3.2-1.61,3.192h-7.384l-2.079-3.2-2.079-3.2.6-1.179h-.166l-.564,1.108h-7.384l-.72-1.108h-.156l.777,1.189-1.615,3.2-1.615,3.192h-7.4l-2.78-4.263v.308l2.633,4.049-2.06,4.078.024.289,2.169-4.3h7.384l2.074,3.2,2.079,3.2-1.61,3.192-1.615,3.2h-7.365l-2.074-3.2-.729-1.122v.308l.583.9,2.079,3.2-1.615,3.2-.474.947v.289l.578-1.146,1.615-3.2h7.379l2.079,3.2,2.079,3.2-1.61,3.2-1.615,3.192h-7.336l-2.079-3.2-.758-1.165v.3l.611.947,2.079,3.2-1.615,3.192-.474.976v.289l.6-1.193,1.615-3.192h7.379l2.079,3.2,2.079,3.2-1.61,3.192-1.615,3.2h-7.355l-2.865-4.424.024.308,2.719,4.182-2.127,4.21Zm32.012-4.58h-7.374l-2.1-3.2-2.074-3.2,1.61-3.2,1.615-3.192h7.379l2.079,3.2,2.079,3.2L141.3,180.5ZM171.9,164.282h-7.374l-2.1-3.187-2.079-3.2,1.615-3.2,1.615-3.192h7.379l2.079,3.2,2.079,3.2-1.61,3.2Zm0,.147,2.079,3.2,2.079,3.2-1.61,3.192-1.6,3.211h-7.384l-2.089-3.2-2.079-3.2,1.615-3.192,1.61-3.2Zm-9.591-3.268,2.079,3.2-1.615,3.2-1.615,3.192h-7.365l-2.079-3.2-2.074-3.187,1.61-3.192,1.615-3.2h7.384Zm-8.643,9.681-1.615,3.192-1.61,3.2h-7.384l-2.079-3.2-2.079-3.2,1.615-3.192,1.61-3.2H149.5l2.079,3.2Zm-2.548-9.742-1.615,3.2h-7.384l-2.079-3.2-2.079-3.2,1.615-3.2,1.61-3.192h7.384l2.079,3.2,2.079,3.2Zm-11.2.076,2.074,3.2-1.61,3.2-1.634,3.192h-7.36l-2.079-3.2-2.079-3.2,1.61-3.192,1.615-3.2h7.384Zm13.072,25.8-1.61,3.2H143.99l-2.079-3.2-2.079-3.2,1.615-3.2,1.61-3.192h7.384l2.079,3.2,2.079,3.2Zm9.122-3.273h-7.379l-2.079-3.2-2.065-3.2,1.61-3.2,1.615-3.192h7.384l2.079,3.2,2.074,3.2-1.61,3.192Zm13.261,3.273-1.61,3.2H166.4l-2.079-3.2-2.079-3.2,1.615-3.2,1.61-3.192h7.379l2.079,3.2,2.079,3.2Zm10.3-12.868,2.079,3.2-1.615,3.192-1.615,3.2h-7.379l-2.079-3.2-2.079-3.2,1.61-3.2,1.615-3.192h7.384Zm-.947-12.934,2.079,3.2-1.615,3.2-1.61,3.192H176.2l-2.079-3.2-2.079-3.2,1.615-3.192,1.61-3.2h7.384ZM174.3,145.035h7.384l2.079,3.2,2.079,3.2-1.615,3.192-1.61,3.2h-7.355l-2.079-3.2-2.079-3.2,1.615-3.2Zm-13.261-3.277,1.615-3.192h7.384l2.074,3.2,2.079,3.2-1.61,3.192-1.629,3.216h-7.365l-2.074-3.2-2.079-3.2Zm-9.122,3.277H159.3l2.079,3.2,2.079,3.2-1.615,3.192-1.61,3.2h-7.379l-2.079-3.2-2.084-3.192,1.61-3.2Zm-13.261-3.277,1.615-3.192h7.379l2.079,3.2,2.079,3.2-1.61,3.192-1.634,3.216h-7.384l-2.079-3.2-2.079-3.2Zm-9.122,3.277H136.9l2.079,3.2,2.079,3.2-1.615,3.192-1.615,3.2h-7.379l-2.079-3.2-2.079-3.2,1.61-3.2Zm-12.821,3.116-2.079-3.2,1.615-3.2,1.61-3.192h7.384l2.079,3.2,2.079,3.2-1.615,3.192-1.61,3.2h-7.4Zm.947,12.939-2.122-3.192,1.615-3.2,1.61-3.192h7.384l2.079,3.2,2.079,3.2-1.615,3.2-1.61,3.2h-7.369Zm.947,12.939-2.122-3.2,1.615-3.192,1.61-3.2h7.384l2.079,3.2,2.079,3.2-1.615,3.192-1.61,3.2h-7.379Zm.474,6.541,1.615-3.192h7.384l2.079,3.2,2.079,3.2-1.615,3.192-1.61,3.2h-7.426l-2.079-3.2-2.074-3.192Z" transform="translate(-99.418 -133.672)" fill="#e0e0e0"/>
      <path id="Path_321" data-name="Path 321" d="M114.789,257.475l-2.8-4.305.019.308,2.6,4Z" transform="translate(-103.455 -194.66)" fill="#e0e0e0"/>
      <path id="Path_322" data-name="Path 322" d="M204.486,219.372H171.731a2.624,2.624,0,0,1-2.581-2.444l-1.255-22.535a2.292,2.292,0,0,1,2.307-2.444h32.765a2.619,2.619,0,0,1,2.576,2.444l1.236,22.535a2.292,2.292,0,0,1-2.292,2.444Z" transform="translate(-132.88 -162.434)" fill="#407bff"/>
      <path id="Path_323" data-name="Path 323" d="M170.191,192a2.292,2.292,0,0,0-2.306,2.444l1.255,22.535a2.624,2.624,0,0,0,2.581,2.444H188.1L186.573,192Z" transform="translate(-132.875 -162.46)" opacity="0.2"/>
      <path id="Path_324" data-name="Path 324" d="M201.751,220.118l.379-7.161a4.263,4.263,0,0,1-1.989-3.315,3.737,3.737,0,0,1,3.789-3.993,4.263,4.263,0,0,1,4.191,3.955,3.732,3.732,0,0,1-1.615,3.315l1.17,7.161Z" transform="translate(-149.852 -169.645)" opacity="0.2"/>
      <path id="Path_325" data-name="Path 325" d="M208.2,210.252a3.609,3.609,0,0,0-3.562-3.372,3.154,3.154,0,0,0-3.183,3.372,3.6,3.6,0,0,0,2.008,3l-.36,6.877h4.547l-1.122-6.877a3.15,3.15,0,0,0,1.672-3Z" transform="translate(-150.543 -170.293)" fill="#263238"/>
      <path id="Path_326" data-name="Path 326" d="M205.092,165.941h-4.334l-.265-4.7a12.1,12.1,0,0,0-11.916-11.291,10.581,10.581,0,0,0-10.661,11.291l.26,4.7h-4.334l-.26-4.7a14.635,14.635,0,0,1,14.753-15.629,16.747,16.747,0,0,1,16.5,15.629Z" transform="translate(-135.859 -138.04)" fill="#407bff"/>
    </g>
  </g>
</svg>
