<svg id="Instagram" xmlns="http://www.w3.org/2000/svg" width="24" height="24" viewBox="0 0 24 24">
  <path id="Path_11000" data-name="Path 11000" d="M0,0H24V24H0Z" fill="none"/>
  <path id="Icon_awesome-instagram" data-name="Icon awesome-instagram" d="M9,5.876a4.614,4.614,0,1,0,4.614,4.614A4.607,4.607,0,0,0,9,5.876Zm0,7.614a3,3,0,1,1,3-3,3.005,3.005,0,0,1-3,3Zm5.879-7.8A1.076,1.076,0,1,1,13.8,4.611,1.074,1.074,0,0,1,14.877,5.687Zm3.056,1.092A5.326,5.326,0,0,0,16.48,3.009a5.361,5.361,0,0,0-3.771-1.454c-1.486-.084-5.939-.084-7.425,0A5.353,5.353,0,0,0,1.513,3,5.343,5.343,0,0,0,.06,6.775c-.084,1.486-.084,5.939,0,7.425a5.326,5.326,0,0,0,1.454,3.771,5.368,5.368,0,0,0,3.771,1.454c1.486.084,5.939.084,7.425,0a5.326,5.326,0,0,0,3.771-1.454A5.361,5.361,0,0,0,17.933,14.2c.084-1.486.084-5.935,0-7.421Zm-1.919,9.015A3.037,3.037,0,0,1,14.3,17.505c-1.185.47-4,.361-5.3.361s-4.124.1-5.3-.361a3.037,3.037,0,0,1-1.711-1.711c-.47-1.185-.361-4-.361-5.3s-.1-4.124.361-5.3A3.037,3.037,0,0,1,3.694,3.475c1.185-.47,4-.361,5.3-.361s4.124-.1,5.3.361a3.037,3.037,0,0,1,1.711,1.711c.47,1.185.361,4,.361,5.3S16.484,14.614,16.014,15.794Z" transform="translate(3.003 1.508)" fill="#fff"/>
</svg>
