<svg xmlns="http://www.w3.org/2000/svg" width="11.912" height="17.123" viewBox="0 0 11.912 17.123">
  <path id="Path_222" data-name="Path 222" d="M83.4,11.31V9.527l-.738.293,0,0-.018-.033a1.9,1.9,0,0,0-1.256-.856L79.605,8.6V8.454a2.762,2.762,0,0,0,1.3-1.856,1.1,1.1,0,0,0,.863-1.081V2.792a1.726,1.726,0,0,0-1.213-1.66L80.423.995A3.281,3.281,0,0,0,78.066,0a3.369,3.369,0,0,0-3.333,3.4v2.12A1.1,1.1,0,0,0,75.6,6.6a2.762,2.762,0,0,0,1.3,1.856V8.6l-1.776.329a1.9,1.9,0,0,0-1.255.855l-.016.04-.743-.294V11.31a.821.821,0,0,0-.812.828v1.1a.821.821,0,0,0,.812.828v1.016l5.144,2.039L83.4,15.085V14.068a.821.821,0,0,0,.812-.828v-1.1A.821.821,0,0,0,83.4,11.31ZM80.113,9.252l1.172.217a1.354,1.354,0,0,1,.855.556L79.52,11.063Zm-2.65-.545a2.649,2.649,0,0,0,1.578,0l-.789.6Zm.377.978-.553.563-.358-1.1L77.1,9.12ZM79.4,9.12l.172.032-.358,1.1-.553-.563Zm1.557-3.128v-.95a.552.552,0,0,1,0,.95Zm-5.414,0a.552.552,0,0,1,0-.95Zm0-1.854v.315a1.063,1.063,0,0,0-.271.114V3.4A2.822,2.822,0,0,1,78.066.552a2.749,2.749,0,0,1,1.974.833l.239.244.073.018a1.175,1.175,0,0,1,.878,1.146V4.567a1.053,1.053,0,0,0-.271-.114V4.138H80.1a2.34,2.34,0,0,1-1.875-.955l-.215-.293-.538.548a2.307,2.307,0,0,1-1.657.7Zm.541,1.931V4.677a2.843,2.843,0,0,0,1.769-.848l.105-.107a2.876,2.876,0,0,0,2.14.968h.317V6.069a2.166,2.166,0,1,1-4.332,0Zm-.867,3.4,1.172-.217.592,1.811-2.62-1.038A1.354,1.354,0,0,1,75.219,9.469Zm-2.381,3.772v-1.1a.274.274,0,0,1,.271-.276.828.828,0,0,1,0,1.655A.274.274,0,0,1,72.837,13.241Zm5.144,3.183L73.65,14.707v-.756a1.387,1.387,0,0,0,0-2.525V10.334l4.332,1.716Zm-.8-5.284,1.074-1.1,1.074,1.095-1.074.426Zm5.677,3.567-4.332,1.716V12.05l4.332-1.716v1.093a1.387,1.387,0,0,0,0,2.525Zm.812-1.466a.274.274,0,0,1-.271.276.828.828,0,0,1,0-1.655.274.274,0,0,1,.271.276Z" transform="translate(-72.296)" fill="#ff7c00"/>
</svg>
