<svg id="WhatsApp" xmlns="http://www.w3.org/2000/svg" width="24" height="24" viewBox="0 0 24 24">
  <path id="Path_10999" data-name="Path 10999" d="M0,0H24V24H0Z" fill="none"/>
  <path id="Icon_awesome-whatsapp" data-name="Icon awesome-whatsapp" d="M15.3,4.116A8.923,8.923,0,0,0,1.266,14.879L0,19.5l4.729-1.242a8.892,8.892,0,0,0,4.263,1.085H9a9.005,9.005,0,0,0,9-8.92,8.955,8.955,0,0,0-2.7-6.308ZM9,17.841a7.4,7.4,0,0,1-3.777-1.033l-.269-.161-2.8.735.747-2.736-.177-.281a7.428,7.428,0,1,1,13.777-3.942A7.5,7.5,0,0,1,9,17.841Zm4.066-5.553c-.221-.113-1.318-.651-1.523-.723s-.354-.113-.5.113-.575.723-.707.876-.261.169-.482.056A6.067,6.067,0,0,1,6.814,9.958c-.229-.394.229-.366.655-1.217a.413.413,0,0,0-.02-.39c-.056-.113-.5-1.209-.687-1.655s-.366-.374-.5-.382-.277-.008-.426-.008a.826.826,0,0,0-.595.277,2.5,2.5,0,0,0-.779,1.86,4.366,4.366,0,0,0,.908,2.306,9.959,9.959,0,0,0,3.809,3.367,4.361,4.361,0,0,0,2.676.558,2.283,2.283,0,0,0,1.5-1.061,1.864,1.864,0,0,0,.129-1.061c-.052-.1-.2-.157-.422-.265Z" transform="translate(3 1.5)" fill="#fff"/>
</svg>
