<svg xmlns="http://www.w3.org/2000/svg" width="350" height="230" viewBox="0 0 350 230">
  <g id="Group_987" data-name="Group 987" transform="translate(-1184 -1560)">
    <path id="shutterstock_401921782-resized" d="M10,0H340a10,10,0,0,1,10,10V230a0,0,0,0,1,0,0H0a0,0,0,0,1,0,0V10A10,10,0,0,1,10,0Z" transform="translate(1184 1560)" fill="#54c9a4"/>
    <g id="Bibliophile-rafiki" transform="translate(1187.902 1456.114)">
      <g id="freepik--Shadow--inject-157" transform="translate(56.11 293.86)">
        <ellipse id="freepik--path--inject-157" cx="115.238" cy="6.728" rx="115.238" ry="6.728" transform="translate(0 0)" fill="#f5f5f5"/>
      </g>
      <g id="freepik--Books--inject-157" transform="translate(88.092 187.965)">
        <path id="Path_886" data-name="Path 886" d="M2.306,0H121.14V29.8H2.306A2.306,2.306,0,0,1,0,27.495V2.306A2.306,2.306,0,0,1,2.306,0Z" transform="translate(167.362 112.772) rotate(180)" fill="#47d0a4"/>
        <path id="Path_887" data-name="Path 887" d="M2.306,0H121.14V29.8H2.306A2.306,2.306,0,0,1,0,27.495V2.306A2.306,2.306,0,0,1,2.306,0Z" transform="translate(167.362 112.772) rotate(180)" opacity="0.2"/>
        <rect id="Rectangle_125" data-name="Rectangle 125" width="18.181" height="29.801" transform="translate(93.538 112.772) rotate(180)" opacity="0.2"/>
        <rect id="Rectangle_126" data-name="Rectangle 126" width="9.218" height="29.801" transform="translate(110.567 112.772) rotate(180)" opacity="0.2"/>
        <path id="Path_888" data-name="Path 888" d="M119.878,366.35h39.358v29.8H119.878a2.318,2.318,0,0,1-2.318-2.318V368.668a2.318,2.318,0,0,1,2.318-2.318Z" transform="translate(-113.019 -283.379)" fill="#47d0a4"/>
        <path id="Path_889" data-name="Path 889" d="M117.56,371.74h34.431a3.025,3.025,0,0,1,3.025,3.025V392.1a3.025,3.025,0,0,1-3.025,3.025H117.56Z" transform="translate(-113.019 -285.565)" fill="#fff" opacity="0.9"/>
        <circle id="Ellipse_8" data-name="Ellipse 8" cx="8.523" cy="8.523" r="8.523" transform="translate(142.186 89.348)" opacity="0.2"/>
        <path id="Path_890" data-name="Path 890" d="M2.306,0h118.87V21.628H2.306A2.306,2.306,0,0,1,0,19.322V2.282A2.306,2.306,0,0,1,2.306,0Z" transform="translate(175.969 82.947) rotate(180)" fill="#263238"/>
        <path id="Path_891" data-name="Path 891" d="M2.306,0h118.87V21.628H2.306A2.306,2.306,0,0,1,0,19.322V2.282A2.306,2.306,0,0,1,2.306,0Z" transform="translate(175.969 82.947) rotate(180)" opacity="0.2"/>
        <path id="Path_892" data-name="Path 892" d="M134.348,330h39.358v21.628H134.348a2.318,2.318,0,0,1-2.318-2.318V332.294A2.318,2.318,0,0,1,134.348,330Z" transform="translate(-118.889 -268.634)" fill="#263238"/>
        <path id="Path_893" data-name="Path 893" d="M132,335.35h34.472a3.025,3.025,0,0,1,3.025,3.025v9.183a3.025,3.025,0,0,1-3.025,3.037H132Z" transform="translate(-118.877 -270.804)" fill="#fff" opacity="0.9"/>
        <rect id="Rectangle_127" data-name="Rectangle 127" width="88.13" height="11.388" rx="4.19" transform="translate(165.336 77.848) rotate(180)" fill="#47d0a4" opacity="0.3"/>
        <rect id="Rectangle_128" data-name="Rectangle 128" width="3.156" height="21.628" transform="translate(62.484 82.971) rotate(180)" fill="#47d0a4" opacity="0.3"/>
        <rect id="Rectangle_129" data-name="Rectangle 129" width="3.156" height="21.628" transform="translate(68.243 82.971) rotate(180)" fill="#47d0a4" opacity="0.3"/>
        <path id="Path_894" data-name="Path 894" d="M2.306,0H121.134V22.336H2.306A2.306,2.306,0,0,1,0,20.03V2.306A2.306,2.306,0,0,1,2.306,0Z" transform="translate(162.81 61.343) rotate(180)" fill="#47d0a4"/>
        <path id="Path_895" data-name="Path 895" d="M2.306,0H121.134V22.336H2.306A2.306,2.306,0,0,1,0,20.03V2.306A2.306,2.306,0,0,1,2.306,0Z" transform="translate(162.81 61.343) rotate(180)" opacity="0.3"/>
        <rect id="Rectangle_130" data-name="Rectangle 130" width="41.26" height="22.312" transform="translate(112.07 61.343) rotate(180)" fill="#fff" opacity="0.9"/>
        <rect id="Rectangle_131" data-name="Rectangle 131" width="20.921" height="22.312" transform="translate(150.715 61.343) rotate(180)" fill="#fff" opacity="0.9"/>
        <path id="Path_896" data-name="Path 896" d="M112.238,292.42h39.334v22.336H112.238a2.318,2.318,0,0,1-2.318-2.318v-17.7A2.318,2.318,0,0,1,112.238,292.42Z" transform="translate(-109.92 -253.389)" fill="#47d0a4"/>
        <path id="Path_897" data-name="Path 897" d="M109.92,297.8h34.431a3.025,3.025,0,0,1,3.025,3.025v9.86a3.025,3.025,0,0,1-3.025,3.025H109.92Z" transform="translate(-109.92 -255.572)" fill="#fff" opacity="0.9"/>
        <path id="Path_898" data-name="Path 898" d="M2.306,0H121.134V14.8H2.306A2.306,2.306,0,0,1,0,12.493V2.306A2.306,2.306,0,0,1,2.306,0Z" transform="translate(171.404 39.031) rotate(180)" fill="#47d0a4"/>
        <path id="Path_899" data-name="Path 899" d="M2.306,0H121.134V14.8H2.306A2.306,2.306,0,0,1,0,12.493V2.306A2.306,2.306,0,0,1,2.306,0Z" transform="translate(171.404 39.031) rotate(180)" fill="#fff" opacity="0.3"/>
        <path id="Path_900" data-name="Path 900" d="M2.306,0H121.134V14.8H2.306A2.306,2.306,0,0,1,0,12.493V2.306A2.306,2.306,0,0,1,2.306,0Z" transform="translate(171.404 39.031) rotate(180)" opacity="0.2"/>
        <path id="Path_901" data-name="Path 901" d="M126.7,267.52h39.358v14.8H126.7A2.318,2.318,0,0,1,124.38,280V269.838A2.318,2.318,0,0,1,126.7,267.52Z" transform="translate(-115.786 -243.288)" fill="#47d0a4"/>
        <path id="Path_902" data-name="Path 902" d="M126.7,267.52h39.358v14.8H126.7A2.318,2.318,0,0,1,124.38,280V269.838A2.318,2.318,0,0,1,126.7,267.52Z" transform="translate(-115.786 -243.288)" fill="#fff" opacity="0.3"/>
        <path id="Path_903" data-name="Path 903" d="M124.38,272.91H158.8a3.025,3.025,0,0,1,3.025,3.025v2.377a3.025,3.025,0,0,1-3.025,2.972H124.38Z" transform="translate(-115.786 -245.475)" fill="#fff" opacity="0.9"/>
        <rect id="Rectangle_132" data-name="Rectangle 132" width="53.86" height="6.995" transform="translate(114.763 35.132) rotate(180)" fill="#263238" opacity="0.4"/>
        <path id="Path_904" data-name="Path 904" d="M228.64,259.28h16.992v4.9H228.64a.38.38,0,0,1-.38-.38v-4.16A.38.38,0,0,1,228.64,259.28Z" transform="translate(-157.925 -239.946)" fill="#47d0a4"/>
        <path id="Path_905" data-name="Path 905" d="M228.64,259.28h16.992v4.9H228.64a.38.38,0,0,1-.38-.38v-4.16A.38.38,0,0,1,228.64,259.28Z" transform="translate(-157.925 -239.946)" opacity="0.2"/>
        <path id="Path_906" data-name="Path 906" d="M.4,0H6.859V4.9H.38A.38.38,0,0,1,0,4.524V.363A.38.38,0,0,1,.4,0Z" transform="translate(94.591 24.244) rotate(180)" fill="#47d0a4"/>
        <path id="Path_907" data-name="Path 907" d="M0,0H5.664a.5.5,0,0,1,.5.5V3.352a.5.5,0,0,1-.5.5H0V0Z" transform="translate(94.573 23.715) rotate(180)" fill="#fff" opacity="0.9"/>
        <path id="Path_908" data-name="Path 908" d="M226.26,253.29h16.992v3.566H226.26a.38.38,0,0,1-.38-.38v-2.8a.38.38,0,0,1,.38-.386Z" transform="translate(-156.959 -237.516)" fill="#263238"/>
        <path id="Path_909" data-name="Path 909" d="M226.26,253.29h16.992v3.566H226.26a.38.38,0,0,1-.38-.38v-2.8a.38.38,0,0,1,.38-.386Z" transform="translate(-156.959 -237.516)" opacity="0.2"/>
        <path id="Path_910" data-name="Path 910" d="M.38,0H6.859V3.566H.38A.38.38,0,0,1,0,3.186V.386A.38.38,0,0,1,.38,0Z" transform="translate(93.152 19.34) rotate(180)" fill="#263238"/>
        <path id="Path_911" data-name="Path 911" d="M0,0H5.664a.5.5,0,0,1,.5.5v1.51a.5.5,0,0,1-.5.5H0Z" transform="translate(93.158 18.811) rotate(180)" fill="#fff" opacity="0.9"/>
        <path id="Path_912" data-name="Path 912" d="M229.9,247.12h16.992v3.673H229.9a.38.38,0,0,1-.38-.38V247.5A.38.38,0,0,1,229.9,247.12Z" transform="translate(-158.436 -235.013)" fill="#47d0a4"/>
        <path id="Path_913" data-name="Path 913" d="M229.9,247.12h16.992v3.673H229.9a.38.38,0,0,1-.38-.38V247.5A.38.38,0,0,1,229.9,247.12Z" transform="translate(-158.436 -235.013)" opacity="0.3"/>
        <path id="Path_914" data-name="Path 914" d="M.38,0H6.859V3.673H.38A.38.38,0,0,1,0,3.293V.386A.38.38,0,0,1,.38,0Z" transform="translate(95.316 15.774) rotate(180)" fill="#47d0a4"/>
        <path id="Path_915" data-name="Path 915" d="M0,0H5.664a.5.5,0,0,1,.5.5V2.122a.5.5,0,0,1-.5.5H0Z" transform="translate(95.316 15.251) rotate(180)" fill="#fff" opacity="0.9"/>
        <path id="Path_916" data-name="Path 916" d="M227.52,243h16.992v2.437H227.52a.38.38,0,0,1-.38-.38V243.38A.38.38,0,0,1,227.52,243Z" transform="translate(-157.471 -233.342)" fill="#47d0a4"/>
        <path id="Path_917" data-name="Path 917" d="M227.52,243h16.992v2.437H227.52a.38.38,0,0,1-.38-.38V243.38A.38.38,0,0,1,227.52,243Z" transform="translate(-157.471 -233.342)" fill="#fff" opacity="0.3"/>
        <path id="Path_918" data-name="Path 918" d="M227.52,243h16.992v2.437H227.52a.38.38,0,0,1-.38-.38V243.38A.38.38,0,0,1,227.52,243Z" transform="translate(-157.471 -233.342)" opacity="0.2"/>
        <path id="Path_919" data-name="Path 919" d="M.38,0H6.859V2.437H.38A.38.38,0,0,1,0,2.056V.386A.38.38,0,0,1,.38,0Z" transform="translate(93.907 12.119) rotate(180)" fill="#47d0a4"/>
        <path id="Path_920" data-name="Path 920" d="M.38,0H6.859V2.437H.38A.38.38,0,0,1,0,2.056V.386A.38.38,0,0,1,.38,0Z" transform="translate(93.907 12.119) rotate(180)" fill="#fff" opacity="0.3"/>
        <path id="Path_921" data-name="Path 921" d="M0,0H5.664a.5.5,0,0,1,.5.5V.886a.5.5,0,0,1-.5.5H0V0Z" transform="translate(93.901 11.578) rotate(180)" fill="#fff" opacity="0.9"/>
        <path id="Path_922" data-name="Path 922" d="M226.26,237h16.992v3.566H226.26a.38.38,0,0,1-.38-.38v-2.8a.38.38,0,0,1,.38-.386Z" transform="translate(-156.959 -230.908)" fill="#263238"/>
        <path id="Path_923" data-name="Path 923" d="M226.26,237h16.992v3.566H226.26a.38.38,0,0,1-.38-.38v-2.8a.38.38,0,0,1,.38-.386Z" transform="translate(-156.959 -230.908)" opacity="0.2"/>
        <path id="Path_924" data-name="Path 924" d="M.4,0H4.7V3.567H.38A.38.38,0,0,1,0,3.186V.387A.38.38,0,0,1,.4,0Z" transform="translate(91.013 9.688) rotate(180)" fill="#263238"/>
        <path id="Path_925" data-name="Path 925" d="M0,0H3.507a.5.5,0,0,1,.5.5v1.51a.5.5,0,0,1-.5.5H0V0Z" transform="translate(91.001 9.141) rotate(180)" fill="#fff" opacity="0.9"/>
        <path id="Path_926" data-name="Path 926" d="M229.9,230.85h16.992v3.655H229.9a.38.38,0,0,1-.38-.38v-2.912A.38.38,0,0,1,229.9,230.85Z" transform="translate(-158.436 -228.413)" fill="#47d0a4"/>
        <path id="Path_927" data-name="Path 927" d="M229.9,230.85h16.992v3.655H229.9a.38.38,0,0,1-.38-.38v-2.912A.38.38,0,0,1,229.9,230.85Z" transform="translate(-158.436 -228.413)" opacity="0.3"/>
        <path id="Path_928" data-name="Path 928" d="M.38,0H4.7V3.655H.38A.38.38,0,0,1,0,3.275V.369A.38.38,0,0,1,.38,0Z" transform="translate(93.158 6.11) rotate(180)" fill="#47d0a4"/>
        <path id="Path_929" data-name="Path 929" d="M0,0H3.507a.5.5,0,0,1,.5.5V2.122a.5.5,0,0,1-.5.5H0V0Z" transform="translate(93.158 5.581) rotate(180)" fill="#fff" opacity="0.9"/>
        <path id="Path_930" data-name="Path 930" d="M227.52,226.76h16.992V229.2H227.52a.38.38,0,0,1-.38-.38V227.14A.38.38,0,0,1,227.52,226.76Z" transform="translate(-157.471 -226.754)" fill="#47d0a4"/>
        <path id="Path_931" data-name="Path 931" d="M227.52,226.76h16.992V229.2H227.52a.38.38,0,0,1-.38-.38V227.14A.38.38,0,0,1,227.52,226.76Z" transform="translate(-157.471 -226.754)" fill="#fff" opacity="0.3"/>
        <path id="Path_932" data-name="Path 932" d="M227.52,226.76h16.992V229.2H227.52a.38.38,0,0,1-.38-.38V227.14A.38.38,0,0,1,227.52,226.76Z" transform="translate(-157.471 -226.754)" opacity="0.2"/>
        <path id="Path_933" data-name="Path 933" d="M.38,0H4.7V2.437H.38A.38.38,0,0,1,0,2.056V.38A.38.38,0,0,1,.38,0Z" transform="translate(91.75 2.437) rotate(180)" fill="#47d0a4"/>
        <path id="Path_934" data-name="Path 934" d="M.38,0H4.7V2.437H.38A.38.38,0,0,1,0,2.056V.38A.38.38,0,0,1,.38,0Z" transform="translate(91.75 2.437) rotate(180)" fill="#fff" opacity="0.3"/>
        <path id="Path_935" data-name="Path 935" d="M0,0H3.507a.5.5,0,0,1,.5.5V.886a.5.5,0,0,1-.5.5H0V0Z" transform="translate(91.744 1.914) rotate(180)" fill="#fff" opacity="0.9"/>
      </g>
      <g id="freepik--Character--inject-157" transform="translate(60.384 131.14)">
        <path id="Path_936" data-name="Path 936" d="M104.073,328.5l-3.923-1.967,3.186-9.747,3.923,1.967Z" transform="translate(-78.249 -206.449)" fill="#ffc3bd"/>
        <path id="Path_937" data-name="Path 937" d="M94.15,330.589l4.814,1.01a.321.321,0,0,1,.262.363l-.594,3.857a.773.773,0,0,1-.909.594c-1.67-.38-2.455-.648-4.571-1.094-1.3-.273-5.8-1.189-7.536-1.783s-1.1-2.3-.309-2.2c3.566.44,6.615.042,8.024-.654a1.249,1.249,0,0,1,.82-.1Z" transform="translate(-71.905 -212.034)" fill="#263238"/>
        <path id="Path_938" data-name="Path 938" d="M108.187,318.767l-3.923-1.967-1.825,5.593,4.107,1.4Z" transform="translate(-79.178 -206.453)" opacity="0.2"/>
        <path id="Path_939" data-name="Path 939" d="M147.635,237.43S114,240.687,111.19,252.937c-4.048,17.6-9.51,34.324-9.51,34.324l7.524,1.325c1.153-5.01,9.729-22.585,13.753-34.431,9.111-1.361,33.468,3.81,37.117-3.12a26.336,26.336,0,0,0,2.906-11.358Z" transform="translate(-78.87 -174.257)" fill="#47d0a4"/>
        <path id="Path_940" data-name="Path 940" d="M147.635,237.43S114,240.687,111.19,252.937c-4.048,17.6-9.51,34.324-9.51,34.324l7.524,1.325c1.153-5.01,9.729-22.585,13.753-34.431,9.111-1.361,33.468,3.81,37.117-3.12a26.336,26.336,0,0,0,2.906-11.358Z" transform="translate(-78.87 -174.257)" opacity="0.3"/>
        <path id="Path_941" data-name="Path 941" d="M109.086,323.392l-8.8-3.186.422-3.536,9.206,2.425Z" transform="translate(-78.306 -206.4)" fill="#47d0a4"/>
        <path id="Path_942" data-name="Path 942" d="M97.349,330.508a5.12,5.12,0,0,0,1.189.083.107.107,0,0,0,.1-.059.113.113,0,0,0,0-.107c-.119-.125-1.189-1.189-1.724-1.117a.4.4,0,0,0-.3.238.559.559,0,0,0,0,.594A1.189,1.189,0,0,0,97.349,330.508Zm.927-.119c-.8,0-1.355-.149-1.516-.392a.357.357,0,0,1,0-.368.172.172,0,0,1,.137-.119C97.212,329.456,97.848,329.967,98.276,330.389Z" transform="translate(-76.779 -211.526)" fill="#47d0a4"/>
        <path id="Path_943" data-name="Path 943" d="M99.335,330.046h.048a.1.1,0,0,0,.065-.071c0-.048.374-1.266,0-1.783a.505.505,0,0,0-.4-.226.38.38,0,0,0-.422.226,2.278,2.278,0,0,0,.624,1.819Zm-.226-1.86a.3.3,0,0,1,.2.131,2.27,2.27,0,0,1,0,1.42,2.044,2.044,0,0,1-.475-1.456c0-.053.071-.113.22-.1Z" transform="translate(-77.612 -210.98)" fill="#47d0a4"/>
        <path id="Path_944" data-name="Path 944" d="M170.991,185.149c-.2,2.211-.523,4.291-.868,6.425s-.8,4.238-1.349,6.36a45.363,45.363,0,0,1-2.092,6.377,20.849,20.849,0,0,1-1.67,3.251,11.7,11.7,0,0,1-1.254,1.658,8.183,8.183,0,0,1-1.944,1.6l-.25.143-.137.048a6.83,6.83,0,0,1-4,.131,12.167,12.167,0,0,1-2.805-1.106,18.313,18.313,0,0,1-2.294-1.486c-.357-.267-.689-.559-1.022-.85a12.893,12.893,0,0,1-.987-.927l1.866-2.7c.7.226,1.444.517,2.163.731s1.432.446,2.116.594a8.917,8.917,0,0,0,1.866.262c.529,0,.9-.143.808-.184l-.386.19a4.784,4.784,0,0,0,.981-1.319,17.386,17.386,0,0,0,1.064-2.377,48.23,48.23,0,0,0,1.587-5.587c.434-1.944.808-3.923,1.135-5.943s.594-4.042.868-5.979Z" transform="translate(-98.601 -152.769)" fill="#ffc3bd"/>
        <path id="Path_945" data-name="Path 945" d="M172.582,178.668c-4.089,3.566-3.863,12.244-3.863,12.244l10.805,3.9c2.288-3.566,3.412-10.377,3.209-13.3C182.418,177.016,177.432,174.425,172.582,178.668Z" transform="translate(-106.063 -149.545)" fill="#263238"/>
        <path id="Path_946" data-name="Path 946" d="M184.891,184.862c-1.943-.933-4.6-.636-7.227,1.658-2.377,2.074-3.3,5.9-3.643,8.719L181.675,198C183.922,194.491,185.045,187.864,184.891,184.862Z" transform="translate(-108.215 -152.731)" opacity="0.2"/>
        <path id="Path_947" data-name="Path 947" d="M79.778,312.8l-1.308-4.184,9.094-4.933,1.3,4.184Z" transform="translate(-69.455 -201.131)" fill="#ffc3bd"/>
        <path id="Path_948" data-name="Path 948" d="M72.632,308.23l3.293,3.655a.309.309,0,0,1,0,.44l-2.734,2.788a.773.773,0,0,1-1.094-.048c-1.123-1.29-1.6-1.967-3.049-3.566-.892-.987-4.024-4.25-5.254-5.617s.155-2.544.8-2.074c2.889,2.1,5.783,3.78,7.334,4.047A1.272,1.272,0,0,1,72.632,308.23Z" transform="translate(-63.301 -201.14)" fill="#263238"/>
        <path id="Path_949" data-name="Path 949" d="M90.545,307.864l-1.3-4.184-6.633,3.6,2.764,3.394Z" transform="translate(-71.134 -201.131)" opacity="0.2"/>
        <path id="Path_950" data-name="Path 950" d="M149.288,239.5s-23.061,3.091-27.815,9.4C113.193,259.892,87,278.026,87,278.026l2.377,7.661s35.7-15.055,42.044-27.643c11.661-.9,30.633,2.942,33.622-4.3,1.991-4.82,1.016-12.018,1.016-12.018Z" transform="translate(-72.915 -175.096)" fill="#47d0a4"/>
        <path id="Path_951" data-name="Path 951" d="M149.288,239.5s-23.061,3.091-27.815,9.4C113.193,259.892,87,278.026,87,278.026l2.377,7.661s35.7-15.055,42.044-27.643c11.661-.9,30.633,2.942,33.622-4.3,1.991-4.82,1.016-12.018,1.016-12.018Z" transform="translate(-72.915 -175.096)" opacity="0.2"/>
        <path id="Path_952" data-name="Path 952" d="M88.316,311.673l-5.076-8.184,3.245-2.669,4.886,8.808Z" transform="translate(-71.39 -199.971)" fill="#47d0a4"/>
        <path id="Path_953" data-name="Path 953" d="M75.98,309.351a5.556,5.556,0,0,0,.9.761.1.1,0,0,0,.113,0,.1.1,0,0,0,.048-.1c0-.166-.22-1.658-.737-1.914a.386.386,0,0,0-.374,0,.594.594,0,0,0-.327.464,1.189,1.189,0,0,0,.38.79Zm.82.458c-.642-.481-1.01-.921-.993-1.189a.369.369,0,0,1,.22-.3.184.184,0,0,1,.184,0c.273.1.487.886.588,1.48Z" transform="translate(-68.29 -202.903)" fill="#47d0a4"/>
        <path id="Path_954" data-name="Path 954" d="M77.69,310.167h.042a.077.077,0,0,0,.1,0c.048,0,1.046-.8,1.07-1.415a.547.547,0,0,0-.184-.422.4.4,0,0,0-.481-.065,2.279,2.279,0,0,0-.565,1.842A.119.119,0,0,0,77.69,310.167Zm.921-1.634a.3.3,0,0,1,.077.22c0,.368-.523.88-.838,1.147a2.062,2.062,0,0,1,.481-1.444.2.2,0,0,1,.244.042Z" transform="translate(-69.12 -202.97)" fill="#47d0a4"/>
        <path id="Path_955" data-name="Path 955" d="M151.35,216.536l-3.495-3.376-2.425,4.755s4.244,2.324,5.308,1.26Z" transform="translate(-96.617 -164.411)" fill="#ffc3bd"/>
        <path id="Path_956" data-name="Path 956" d="M141.27,213.1l-.63,3.9,2.847.862,2.425-4.725Z" transform="translate(-94.674 -164.387)" fill="#ffc3bd"/>
        <path id="Path_957" data-name="Path 957" d="M202.288,173.638c-.44-1.159-1.224-2.306-2.467-2.288-.256,0-1.783,0-2.056.036-1.426.036-3.209.131-4.933.351a86.664,86.664,0,0,0-9.813,1.706c-1.486.4-2.912.909-4.053,1.343h-.042a3.192,3.192,0,0,0-2.015,3.287c.594,6.282,2.068,23.726,1.189,32.76l24.368,3.209c1.462-4.648,2.045-15.293,2.056-23.97C204.57,184.859,204.1,178.375,202.288,173.638Z" transform="translate(-109.38 -147.451)" fill="#263238"/>
        <path id="Path_958" data-name="Path 958" d="M211.123,195.34l-.481.036-3.091,2.675-3.2,11.013-10.984,1.92c2.669,1.349,10.431,1.623,15.019.4a3.655,3.655,0,0,0,2.686-3.4c.113-2.752.166-5.545.166-8.166C211.242,198.4,211.212,196.885,211.123,195.34Z" transform="translate(-116.064 -157.183)" opacity="0.2"/>
        <path id="Path_959" data-name="Path 959" d="M156.89,201.022s2.146-1.189,6.169-.036a10.377,10.377,0,0,0,6.853-.2l1.5,2.817-13.67.475Z" transform="translate(-101.266 -159.269)" fill="#47d0a4"/>
        <path id="Path_960" data-name="Path 960" d="M156.89,201.022s2.146-1.189,6.169-.036a10.377,10.377,0,0,0,6.853-.2l1.5,2.817-13.67.475Z" transform="translate(-101.266 -159.269)" fill="#fff" opacity="0.8"/>
        <path id="Path_961" data-name="Path 961" d="M149.84,199.711s-.089-.862-2.686-.951c-5.224-.172-7.429-1.51-7.429-1.51l-.214,1.349,11.18,4.16Z" transform="translate(-94.216 -157.957)" fill="#47d0a4"/>
        <path id="Path_962" data-name="Path 962" d="M149.84,199.711s-.089-.862-2.686-.951c-5.224-.172-7.429-1.51-7.429-1.51l-.214,1.349,11.18,4.16Z" transform="translate(-94.216 -157.957)" fill="#fff" opacity="0.8"/>
        <path id="Path_963" data-name="Path 963" d="M153.931,220.238l-9.676-2.758a.779.779,0,0,1-.511-.517l-4.951-17.926a.47.47,0,0,1,.594-.594l9.218,2.633Z" transform="translate(-93.915 -158.432)" fill="#47d0a4"/>
        <path id="Path_964" data-name="Path 964" d="M177.315,222.971l-12.719-.707-5.3-19.174,12.9.719a.719.719,0,0,1,.63.523l4.981,18.021a.458.458,0,0,1-.493.618Z" transform="translate(-102.243 -160.326)" fill="#47d0a4"/>
        <path id="Path_965" data-name="Path 965" d="M160.666,222.044l2.336.131L157.706,203l-2.336-.131Z" transform="translate(-100.649 -160.237)" fill="#47d0a4"/>
        <path id="Path_966" data-name="Path 966" d="M160.666,222.044l2.336.131L157.706,203l-2.336-.131Z" transform="translate(-100.649 -160.237)" opacity="0.3"/>
        <path id="Path_967" data-name="Path 967" d="M207.594,182.53c.125.856.208,1.581.267,2.377s.1,1.533.137,2.306c.053,1.533.042,3.073-.054,4.618a35.365,35.365,0,0,1-1.718,9.325,4.229,4.229,0,0,1-.178.5,6.13,6.13,0,0,1-.279.559,5.674,5.674,0,0,1-.666.933,6.331,6.331,0,0,1-1.468,1.218,10.7,10.7,0,0,1-2.7,1.141,22.755,22.755,0,0,1-4.826.731,44.424,44.424,0,0,1-9.082-.505l.155-3.287a82.963,82.963,0,0,0,8.321-1.189,20.91,20.91,0,0,0,3.685-1.052,4.975,4.975,0,0,0,1.236-.684c.125-.107.184-.2.172-.208s-.03,0-.048.042a.6.6,0,0,0-.048.065h0a33.918,33.918,0,0,0,.654-3.834c.125-1.319.214-2.657.232-4.012s0-2.722-.059-4.089c-.03-.684-.065-1.367-.119-2.045l-.083-1.016-.089-.951Z" transform="translate(-113.492 -151.986)" fill="#ffc3bd"/>
        <path id="Path_968" data-name="Path 968" d="M215.377,172.776c-2.889-2.205-6.877-2.14-8.511,3.667-1.07,3.8-.5,11.459-.5,11.459l11.536-.232C219.192,181.584,218.3,175.01,215.377,172.776Z" transform="translate(-121.274 -147.486)" fill="#263238"/>
        <path id="Path_969" data-name="Path 969" d="M195.857,155.68l-2.425,2.847-3.3,3.881a11.781,11.781,0,0,1,.517,1.522c.594,2.056-1.278,2.473-2.972,3.513,0,0-2.538,3.358,3.566,2.377s6.972-4.16,6.972-4.16C195.471,163.8,195.667,159.234,195.857,155.68Z" transform="translate(-113.541 -141.094)" fill="#ffc3bd"/>
        <path id="Path_970" data-name="Path 970" d="M193.976,178.8a15.241,15.241,0,0,1-1.872.41,10.211,10.211,0,0,1-2.472.149l-.143.707c-.22.155-.273.981,1.117,1.961C192.075,181.724,194.351,180.47,193.976,178.8Z" transform="translate(-114.442 -150.473)" fill="#47d0a4"/>
        <path id="Path_971" data-name="Path 971" d="M200.03,170.75a7.757,7.757,0,0,1-5.349,4.214,4.95,4.95,0,0,1-.38,3.495s5.854-2,7.073-4.006.7-3.174.7-3.174a5.058,5.058,0,0,0-2.039-.529Z" transform="translate(-116.441 -147.208)" fill="#263238"/>
        <path id="Path_972" data-name="Path 972" d="M188.436,179.259s.042-2.556.79-3.412a2.814,2.814,0,0,1,.422-2.787,5.046,5.046,0,0,0-3.156,2.056C185.69,176.454,186.249,179.295,188.436,179.259Z" transform="translate(-113.133 -148.145)" fill="#263238"/>
        <path id="Path_973" data-name="Path 973" d="M192.16,164.351a11.781,11.781,0,0,1,.517,1.522c1.391-.541,3.049-2.413,2.972-3.923a6.859,6.859,0,0,0-.208-1.48Z" transform="translate(-115.573 -143.038)" opacity="0.2"/>
        <path id="Path_974" data-name="Path 974" d="M178.32,143.443c-1.147,2.407-.16,8.125,5.278,5.848S180.186,139.538,178.32,143.443Z" transform="translate(-109.786 -135.68)" fill="#263238"/>
        <path id="Path_975" data-name="Path 975" d="M198.563,152.283c-.5,1.04-.071,3.513,2.276,2.532S199.342,150.6,198.563,152.283Z" transform="translate(-118.095 -139.522)" fill="#263238"/>
        <path id="Path_976" data-name="Path 976" d="M199.442,155.206c-.761.868-1.016,3.364,1.516,3.049S200.672,153.774,199.442,155.206Z" transform="translate(-118.314 -140.781)" fill="#263238"/>
        <path id="Path_977" data-name="Path 977" d="M192.17,141.073c.987,4.606,1.783,7.239.184,10.276a6.122,6.122,0,0,1-10.841.071c-2.092-3.756-3.358-10.657.517-13.842a6.2,6.2,0,0,1,10.14,3.495Z" transform="translate(-110.448 -133.138)" fill="#ffc3bd"/>
        <path id="Path_978" data-name="Path 978" d="M189.129,133.719c-.939-4.089-6.419-2.669-9.212-.2s-3.513,4.416-5.866,5.878c4.345.594,10.5-1.129,11.649-2.591a4.588,4.588,0,0,0,1.878,3.721,30.306,30.306,0,0,0,0,3.845l1.985-1.01,2.312-.927C195.286,136.673,193.271,133.113,189.129,133.719Z" transform="translate(-108.227 -131.14)" fill="#263238"/>
        <path id="Path_979" data-name="Path 979" d="M190.982,148.853a.159.159,0,0,1-.03-.315l6.443-1.1a.161.161,0,0,1,.184.131.155.155,0,0,1-.131.178l-6.443,1.1Z" transform="translate(-115.031 -137.75)" fill="#fff"/>
        <path id="Path_980" data-name="Path 980" d="M187.544,152.335h0c-1.189,0-2.5-1.278-2.918-2.829a2.633,2.633,0,0,1,.267-2.312,1.432,1.432,0,0,1,1.189-.594h0c1.189,0,2.5,1.278,2.924,2.829h0a2.669,2.669,0,0,1-.273,2.318A1.426,1.426,0,0,1,187.544,152.335Zm-1.492-5.4a1.129,1.129,0,0,0-.921.446,2.377,2.377,0,0,0-.214,2.039c.386,1.426,1.563,2.591,2.621,2.6a1.07,1.07,0,0,0,.927-.446,2.377,2.377,0,0,0,.22-2.039c-.386-1.426-1.563-2.591-2.621-2.6Z" transform="translate(-112.455 -137.411)" fill="#fff"/>
        <path id="Path_981" data-name="Path 981" d="M183.339,152.536a.19.19,0,0,1-.083,0,.155.155,0,0,1-.053-.22,1.189,1.189,0,0,1,1.189-.434.166.166,0,0,1,.119.19.16.16,0,0,1-.19.119.882.882,0,0,0-.874.291A.149.149,0,0,1,183.339,152.536Z" transform="translate(-111.929 -139.543)" fill="#fff"/>
        <path id="Path_982" data-name="Path 982" d="M202.581,148.629a4.975,4.975,0,0,1-1.955,2.918c-1.29.88-2.3-.214-2.247-1.747.048-1.379.773-3.495,2.217-3.762S202.908,147.191,202.581,148.629Z" transform="translate(-118.095 -137.17)" fill="#ffc3bd"/>
        <path id="Path_983" data-name="Path 983" d="M187.825,150.7c.172.339.131.713-.089.832s-.535-.059-.707-.4-.125-.713.089-.832S187.653,150.354,187.825,150.7Z" transform="translate(-113.449 -138.895)" fill="#263238"/>
        <path id="Path_984" data-name="Path 984" d="M181.489,153.281c.155.351.1.719-.131.826s-.535-.089-.684-.44-.089-.725.137-.826S181.34,152.924,181.489,153.281Z" transform="translate(-110.881 -139.932)" fill="#263238"/>
        <path id="Path_985" data-name="Path 985" d="M178.7,148.858a.226.226,0,0,0,.155-.149,1.872,1.872,0,0,1,1.117-1.189.226.226,0,0,0,.149-.279.214.214,0,0,0-.273-.149h0a2.288,2.288,0,0,0-1.421,1.51.214.214,0,0,0,.143.279A.2.2,0,0,0,178.7,148.858Z" transform="translate(-109.999 -137.607)" fill="#263238"/>
        <path id="Path_986" data-name="Path 986" d="M180.019,154.752h0c-1.082,0-2.276-1.189-2.663-2.579a2.425,2.425,0,0,1,.25-2.116,1.3,1.3,0,0,1,1.07-.517h0c1.088,0,2.282,1.189,2.669,2.579h0a2.425,2.425,0,0,1-.25,2.11A1.3,1.3,0,0,1,180.019,154.752Zm-1.355-4.9a.993.993,0,0,0-.82.4,2.116,2.116,0,0,0-.2,1.837,2.989,2.989,0,0,0,2.377,2.348h0a1,1,0,0,0,.826-.4,2.14,2.14,0,0,0,.2-1.837h0a3.078,3.078,0,0,0-2.377-2.377Z" transform="translate(-109.513 -138.604)" fill="#fff"/>
        <path id="Path_987" data-name="Path 987" d="M183.843,152.68a12.106,12.106,0,0,1-.523,3.186,1.854,1.854,0,0,0,1.545-.291Z" transform="translate(-111.987 -139.878)" fill="#ed847e"/>
        <path id="Path_988" data-name="Path 988" d="M186.834,158.639a3.287,3.287,0,0,0,2.009-1.617.113.113,0,0,0-.059-.149.119.119,0,0,0-.149.053,3.132,3.132,0,0,1-2.27,1.593.119.119,0,0,0-.1.131.113.113,0,0,0,.131.089A3.091,3.091,0,0,0,186.834,158.639Z" transform="translate(-113.183 -141.575)" fill="#263238"/>
        <path id="Path_989" data-name="Path 989" d="M187.9,145.84a.2.2,0,0,0,.077-.077.226.226,0,0,0-.077-.309,2.163,2.163,0,0,0-2.021-.125.22.22,0,0,0-.1.3.226.226,0,0,0,.3.1,1.712,1.712,0,0,1,1.587.113.208.208,0,0,0,.226,0Z" transform="translate(-112.975 -136.817)" fill="#263238"/>
        <path id="Path_990" data-name="Path 990" d="M186.727,215.271,183,213.69l.125,4.755s3.691,1.492,4.3-.475Z" transform="translate(-111.857 -164.626)" fill="#ffc3bd"/>
        <path id="Path_991" data-name="Path 991" d="M175.21,214.754l.82,3.382,3.941.291-.125-4.737Z" transform="translate(-108.697 -164.626)" fill="#ffc3bd"/>
      </g>
    </g>
  </g>
</svg>
