<svg id="creativity" xmlns="http://www.w3.org/2000/svg" width="22.363" height="25.677" viewBox="0 0 22.363 25.677">
  <path id="Path_212" data-name="Path 212" d="M98.177,43.045a2.069,2.069,0,0,0-1.344,1.932,2.046,2.046,0,0,0,.237.942,1.649,1.649,0,0,0,0,3.085,2.046,2.046,0,0,0-.237.942,2.069,2.069,0,0,0,1.344,1.932,1.633,1.633,0,0,0-.1.552,1.645,1.645,0,0,0,2.241,1.545,1.652,1.652,0,0,0,3.143-.717v-11.6a1.652,1.652,0,0,0-3.143-.717,1.641,1.641,0,0,0-2.139,2.1Zm1.555-1.381a.829.829,0,0,1,.828.828h.828a1.641,1.641,0,0,0-.382-1.045.826.826,0,0,1,1.624.217v11.6a.826.826,0,0,1-1.624.217,1.64,1.64,0,0,0,.382-1.045h-.828a.828.828,0,1,1-.828-.828v-.828a1.641,1.641,0,0,0-1.056.391,1.241,1.241,0,1,1,1.47-1.219h.828A2.073,2.073,0,0,0,98.9,47.876a2.049,2.049,0,0,0-1.242.425V48.29a.828.828,0,1,1,0-1.657v-.011a2.049,2.049,0,0,0,1.242.425,2.073,2.073,0,0,0,2.071-2.071h-.828a1.242,1.242,0,1,1-1.47-1.219,1.641,1.641,0,0,0,1.056.391v-.828a.828.828,0,0,1,0-1.657Zm0,0" transform="translate(-91.035 -37.937)" fill="#fff"/>
  <path id="Path_213" data-name="Path 213" d="M259.731,40.836a1.648,1.648,0,0,0-.584.111,1.653,1.653,0,0,0-3.143.717v11.6a1.653,1.653,0,0,0,3.143.717,1.645,1.645,0,0,0,2.24-1.545,1.629,1.629,0,0,0-.1-.552,2.069,2.069,0,0,0,1.344-1.932,2.045,2.045,0,0,0-.237-.942,1.649,1.649,0,0,0,0-3.085,2.045,2.045,0,0,0,.237-.942,2.069,2.069,0,0,0-1.344-1.932,1.628,1.628,0,0,0,.1-.552,1.658,1.658,0,0,0-1.656-1.657Zm2.071,4.141a1.242,1.242,0,1,1-2.485,0h-.828a2.073,2.073,0,0,0,2.071,2.071,2.048,2.048,0,0,0,1.242-.425v.011a.828.828,0,1,1,0,1.657V48.3a2.049,2.049,0,0,0-1.242-.425,2.073,2.073,0,0,0-2.071,2.071h.828a1.242,1.242,0,1,1,1.47,1.219,1.642,1.642,0,0,0-1.056-.391V51.6a.828.828,0,1,1-.828.828h-.828a1.64,1.64,0,0,0,.382,1.045.826.826,0,0,1-1.624-.217v-11.6a.826.826,0,0,1,1.624-.217,1.64,1.64,0,0,0-.382,1.045h.828a.828.828,0,1,1,.828.828v.828a1.641,1.641,0,0,0,1.056-.391A1.242,1.242,0,0,1,261.8,44.977Zm0,0" transform="translate(-242.752 -37.937)" fill="#fff"/>
  <path id="Path_214" data-name="Path 214" d="M80.055,2.584A9.446,9.446,0,0,0,72.925.021l.051.826a8.7,8.7,0,0,1,5.356,15.93,5.12,5.12,0,0,0-1.871,2.274H70.588a5.2,5.2,0,0,0-1.881-2.292,8.658,8.658,0,0,1-3.866-7.511l-.828-.026a9.48,9.48,0,0,0,4.234,8.225,4.364,4.364,0,0,1,1.432,1.6H68.564v.828h1.447a4.78,4.78,0,0,1,.177.828h-.8v.828h.828v1.242a.414.414,0,0,0,.414.414h.414a2.485,2.485,0,1,0,4.97,0h.414a.414.414,0,0,0,.414-.414V21.536h.828v-.828h-.8a4.617,4.617,0,0,1,.166-.828H78.5v-.828H77.369a4.27,4.27,0,0,1,1.422-1.584A9.524,9.524,0,0,0,80.055,2.584ZM73.534,24.849a1.658,1.658,0,0,1-1.657-1.657H75.19A1.658,1.658,0,0,1,73.534,24.849Zm2.485-2.485h-4.97v-.828h4.97Zm.03-1.657H71.016a5.638,5.638,0,0,0-.14-.828h5.3A5.5,5.5,0,0,0,76.048,20.708Zm0,0" transform="translate(-60.695 -0.001)" fill="#fff"/>
  <path id="Path_215" data-name="Path 215" d="M48.418,2.907a1.658,1.658,0,0,1,1.657,1.657.414.414,0,1,0,.828,0,1.658,1.658,0,0,1,1.657-1.657.414.414,0,1,0,0-.828A1.658,1.658,0,0,1,50.9.422a.414.414,0,1,0-.828,0,1.658,1.658,0,0,1-1.657,1.657.414.414,0,1,0,0,.828Zm2.071-1.113a2.506,2.506,0,0,0,.7.7,2.509,2.509,0,0,0-.7.7,2.506,2.506,0,0,0-.7-.7A2.5,2.5,0,0,0,50.489,1.794Zm0,0" transform="translate(-45.519 -0.007)" fill="#fff"/>
  <path id="Path_216" data-name="Path 216" d="M4.559,82.907a.414.414,0,1,0,0-.828A1.658,1.658,0,0,1,2.9,80.422a.414.414,0,0,0-.828,0A1.658,1.658,0,0,1,.418,82.079a.414.414,0,1,0,0,.828,1.658,1.658,0,0,1,1.657,1.657.414.414,0,1,0,.828,0A1.658,1.658,0,0,1,4.559,82.907Zm-2.071.285a2.506,2.506,0,0,0-.7-.7,2.509,2.509,0,0,0,.7-.7,2.512,2.512,0,0,0,.7.7A2.509,2.509,0,0,0,2.489,83.191Zm0,0" transform="translate(-0.004 -75.866)" fill="#fff"/>
</svg>
