<svg xmlns="http://www.w3.org/2000/svg" width="7.981" height="9.684" viewBox="0 0 7.981 9.684">
  <g id="Group_168" data-name="Group 168" transform="translate(0 0)">
    <path id="Path_1034" data-name="Path 1034" d="M17.224,4.842a.439.439,0,0,1,.1-.318L20.413.931a.316.316,0,0,1,.494,0,.454.454,0,0,1,0,.574L18.036,4.842l2.872,3.337a.453.453,0,0,1,0,.574.316.316,0,0,1-.494,0L17.321,5.16A.44.44,0,0,1,17.224,4.842Zm-4.1-.318L16.919.119a.316.316,0,0,1,.494,0,.453.453,0,0,1,0,.574L13.842,4.842l3.571,4.149a.454.454,0,0,1,0,.574.316.316,0,0,1-.494,0L13.128,5.16a.439.439,0,0,1-.1-.318A.439.439,0,0,1,13.127,4.525Z" transform="translate(-13.029 0)" fill="#fff"/>
  </g>
</svg>
