<svg xmlns="http://www.w3.org/2000/svg" width="17.571" height="21.683" viewBox="0 0 17.571 21.683">
  <g id="Icon_ionic-ios-notifications" data-name="Icon ionic-ios-notifications" transform="translate(-6.243 -3.43)">
    <path id="Path_11001" data-name="Path 11001" d="M17.1,31.076a2.437,2.437,0,0,0,2.486-2.74H14.6A2.438,2.438,0,0,0,17.1,31.076Z" transform="translate(-2.077 -6.463)" fill="none" stroke="#000" stroke-width="1"/>
    <path id="Path_11002" data-name="Path 11002" d="M23.088,19.247c-.8-1.049-2.362-1.665-2.362-6.363,0-4.823-2.13-6.761-4.115-7.227-.186-.047-.32-.109-.32-.3V5.2a1.261,1.261,0,1,0-2.523,0v.15c0,.191-.134.258-.32.3-1.99.47-4.115,2.4-4.115,7.227,0,4.7-1.566,5.309-2.362,6.363a1.026,1.026,0,0,0,.822,1.644H22.271A1.026,1.026,0,0,0,23.088,19.247Z" fill="none" stroke="#000" stroke-width="1"/>
  </g>
</svg>
