<svg id="_x31_3_idea_2_" xmlns="http://www.w3.org/2000/svg" width="60.242" height="70.432" viewBox="0 0 60.242 70.432">
  <path id="Path_998" data-name="Path 998" d="M247.721,6.744A1.088,1.088,0,0,0,248.852,5.7V1.039a1.135,1.135,0,0,0-2.262,0V5.7A1.088,1.088,0,0,0,247.721,6.744Z" transform="translate(-217.6)" fill="#fff"/>
  <path id="Path_999" data-name="Path 999" d="M362.661,56.619l-3.589,3.3a.981.981,0,0,0,0,1.47,1.2,1.2,0,0,0,1.6,0l3.589-3.3a.981.981,0,0,0,0-1.47A1.2,1.2,0,0,0,362.661,56.619Z" transform="translate(-312.841 -48.51)" fill="#fff"/>
  <path id="Path_1000" data-name="Path 1000" d="M114.554,304.726l-3.589,3.3a.981.981,0,0,0,0,1.47,1.2,1.2,0,0,0,1.6,0l3.589-3.3a.981.981,0,0,0,0-1.47A1.2,1.2,0,0,0,114.554,304.726Z" transform="translate(-102.143 -262.23)" fill="#fff"/>
  <path id="Path_1001" data-name="Path 1001" d="M114.554,61.388a1.2,1.2,0,0,0,1.6,0,.981.981,0,0,0,0-1.47l-3.589-3.3a1.2,1.2,0,0,0-1.6,0,.981.981,0,0,0,0,1.47Z" transform="translate(-102.143 -48.509)" fill="#fff"/>
  <path id="Path_1002" data-name="Path 1002" d="M360.673,304.726a1.2,1.2,0,0,0-1.6,0,.981.981,0,0,0,0,1.47l3.589,3.3a1.2,1.2,0,0,0,1.6,0,.981.981,0,0,0,0-1.47Z" transform="translate(-312.842 -262.23)" fill="#fff"/>
  <path id="Path_1003" data-name="Path 1003" d="M60.526,192.269H55.451a1.043,1.043,0,1,0,0,2.079h5.075a1.043,1.043,0,1,0,0-2.079Z" transform="translate(-54.32 -165.621)" fill="#fff"/>
  <path id="Path_1004" data-name="Path 1004" d="M411.4,192.269h-5.075a1.043,1.043,0,1,0,0,2.079H411.4a1.043,1.043,0,1,0,0-2.079Z" transform="translate(-352.293 -165.621)" fill="#fff"/>
  <path id="Path_1005" data-name="Path 1005" d="M147.272,234.01a1.043,1.043,0,1,0,0-2.079h-.409v-3.513l.022-.118a13.873,13.873,0,0,1,1.232-3.691,1.007,1.007,0,0,0-.559-1.377,1.173,1.173,0,0,0-1.5.514,15.913,15.913,0,0,0-1.267,3.547H131.534a16.572,16.572,0,0,0-5.656-9.136,16.486,16.486,0,0,1-6.022-10.763,1.112,1.112,0,0,0-1.247-.921,1.064,1.064,0,0,0-1,1.146,18.511,18.511,0,0,0,6.761,12.085,14.492,14.492,0,0,1,5.064,8.558l.028.156v3.513h-.371a1.043,1.043,0,1,0,0,2.079h.371v2.56h-.371a1.043,1.043,0,1,0,0,2.079h.371v1.782a2.883,2.883,0,0,0,2.04,2.68,6.116,6.116,0,0,0,3.693,5.063,1.207,1.207,0,0,0,.5.109,1.145,1.145,0,0,0,1.014-.577,1,1,0,0,0-.51-1.393,4.079,4.079,0,0,1-2.4-3.024h8.729a4.078,4.078,0,0,1-2.4,3.023,1,1,0,0,0-.51,1.393,1.145,1.145,0,0,0,1.014.577,1.207,1.207,0,0,0,.5-.109,6.116,6.116,0,0,0,3.693-5.063,2.883,2.883,0,0,0,2.04-2.68v-1.782h.409a1.043,1.043,0,1,0,0-2.079h-.409v-2.56Zm-15.55-4.639H144.6v2.56H131.722ZM144.6,240.432a.815.815,0,0,1-.846.778H132.569a.815.815,0,0,1-.846-.778v-1.782H144.6Zm0-3.861H131.722v-2.56H144.6Z" transform="translate(-108.06 -177.851)" fill="#fff"/>
  <path id="Path_1006" data-name="Path 1006" d="M221.421,171.963a5.351,5.351,0,1,0-5.8-5.332A5.587,5.587,0,0,0,221.421,171.963Zm0-8.584a3.264,3.264,0,1,1-3.539,3.253A3.409,3.409,0,0,1,221.421,163.379Z" transform="translate(-191.3 -138.945)" fill="#fff"/>
  <path id="Path_1007" data-name="Path 1007" d="M160.826,114.566a1.815,1.815,0,0,0-1.885,1.732v3.019a1.815,1.815,0,0,0,1.885,1.732h2.257a9.451,9.451,0,0,0,.5,1.1l-1.6,1.468a1.637,1.637,0,0,0,0,2.45L164.3,128.2a2.006,2.006,0,0,0,2.665,0l1.6-1.467a11.292,11.292,0,0,0,1.195.456v2.075A1.815,1.815,0,0,0,171.645,131h3.284a1.815,1.815,0,0,0,1.885-1.732v-2.075a11.293,11.293,0,0,0,1.195-.456l1.6,1.467a2,2,0,0,0,2.666,0l2.322-2.135a1.637,1.637,0,0,0,0-2.45l-1.6-1.468a9.393,9.393,0,0,0,.5-1.1h2.257a1.815,1.815,0,0,0,1.885-1.732V116.3a1.815,1.815,0,0,0-1.885-1.732h-2.257a9.43,9.43,0,0,0-.5-1.1l1.6-1.468a1.637,1.637,0,0,0,0-2.45l-2.322-2.135a2,2,0,0,0-2.665,0l-1.6,1.468a11.257,11.257,0,0,0-1.195-.456v-2.075a1.815,1.815,0,0,0-1.885-1.732h-3.284a1.815,1.815,0,0,0-1.885,1.732v2.075a11.255,11.255,0,0,0-1.195.456l-1.6-1.468a2.006,2.006,0,0,0-2.665,0l-2.322,2.134a1.637,1.637,0,0,0,0,2.45l1.6,1.468a9.445,9.445,0,0,0-.5,1.1h-2.257Zm4.947-2.022-1.925-1.769,1.789-1.644,1.925,1.769a1.206,1.206,0,0,0,1.377.159,8.9,8.9,0,0,1,2.233-.851,1.059,1.059,0,0,0,.851-1.007v-2.5h2.53v2.5a1.06,1.06,0,0,0,.851,1.007,8.9,8.9,0,0,1,2.233.851,1.206,1.206,0,0,0,1.377-.159l1.925-1.769,1.789,1.644-1.925,1.769a.977.977,0,0,0-.173,1.266,7.454,7.454,0,0,1,.926,2.052,1.118,1.118,0,0,0,1.1.783h2.721v2.326h-2.721a1.118,1.118,0,0,0-1.1.783,7.453,7.453,0,0,1-.926,2.052.977.977,0,0,0,.173,1.266l1.925,1.769-1.789,1.644-1.925-1.769a1.206,1.206,0,0,0-1.377-.159,8.9,8.9,0,0,1-2.233.851,1.06,1.06,0,0,0-.851,1.007v2.5h-2.53v-2.5a1.059,1.059,0,0,0-.851-1.007,8.909,8.909,0,0,1-2.233-.851,1.206,1.206,0,0,0-1.377.159l-1.925,1.769-1.789-1.644,1.925-1.769a.978.978,0,0,0,.173-1.266,7.459,7.459,0,0,1-.926-2.052,1.118,1.118,0,0,0-1.1-.783H161.2v-2.326h2.721a1.118,1.118,0,0,0,1.1-.783,7.46,7.46,0,0,1,.926-2.052A.977.977,0,0,0,165.772,112.545Z" transform="translate(-143.167 -90.121)" fill="#fff"/>
  <path id="Path_1008" data-name="Path 1008" d="M153.137,68.164a21.918,21.918,0,0,0-28.313-.9,18.67,18.67,0,0,0-6.935,11.877,1.06,1.06,0,0,0,.977,1.164,1.117,1.117,0,0,0,1.266-.9,16.637,16.637,0,0,1,6.184-10.58,19.51,19.51,0,0,1,25.212.8,16.174,16.174,0,0,1,5.322,11.91,16.4,16.4,0,0,1-6.035,12.538,18.694,18.694,0,0,0-1.67,1.579.982.982,0,0,0,.122,1.466,1.186,1.186,0,0,0,.736.251,1.172,1.172,0,0,0,.859-.363,16.527,16.527,0,0,1,1.475-1.4,18.407,18.407,0,0,0,6.775-14.076,18.159,18.159,0,0,0-5.975-13.372Z" transform="translate(-108.296 -53.849)" fill="#fff"/>
</svg>
