<svg xmlns="http://www.w3.org/2000/svg" width="493" height="453.855" viewBox="0 0 493 453.855">
  <g id="Mobile_login-rafiki" data-name="Mobile login-rafiki" transform="translate(-56.11 -70.57)">
    <g id="freepik--background-simple--inject-40" transform="translate(119.187 84.245)">
      <path id="Path_1172" data-name="Path 1172" d="M142.257,280.181c74.424,76.738,172.228,130.007,262.888,44.026,46.734-44.293,108.5-163.914,47.548-218.67-84-75.441-132.219,47.993-194.985,64.724-43.048,11.442-79.243-54.668-130.77-10.5C86.2,194.658,111.313,248.283,142.257,280.181Z" transform="translate(-105.724 -81.326)" fill="#407bff"/>
      <path id="Path_1173" data-name="Path 1173" d="M142.257,280.181c74.424,76.738,172.228,130.007,262.888,44.026,46.734-44.293,108.5-163.914,47.548-218.67-84-75.441-132.219,47.993-194.985,64.724-43.048,11.442-79.243-54.668-130.77-10.5C86.2,194.658,111.313,248.283,142.257,280.181Z" transform="translate(-105.724 -81.326)" fill="#fff" opacity="0.9"/>
    </g>
    <g id="freepik--Shadow--inject-40" transform="translate(56.11 495.642)">
      <ellipse id="Ellipse_23" data-name="Ellipse 23" cx="246.5" cy="14.392" rx="246.5" ry="14.392" fill="#f5f5f5"/>
    </g>
    <g id="freepik--character-2--inject-40" transform="translate(349.866 104.856)">
      <path id="Path_1174" data-name="Path 1174" d="M363.034,164.515l-12.612-5.085s-16.642,30.347-21.409,31.885c-6.484,2.085-19.909,7.882-27.868,8.9-1.081,1.271-2.848,5.225-2.683,6.662,10.692,3.572,34.186-1.17,39.221-4.907C349.138,193.489,363.034,164.515,363.034,164.515Z" transform="translate(-284.109 -80.744)" fill="#e58a7b"/>
      <path id="Path_1175" data-name="Path 1175" d="M358.08,159.5c2.352,8.683-10.387,26.151-10.387,26.151L331,176.293s3.128-7.183,6.942-14.493C344.057,149.989,355.4,149.6,358.08,159.5Z" transform="translate(-275.277 -82.632)" fill="#407bff"/>
      <path id="Path_1176" data-name="Path 1176" d="M358.08,159.5c2.352,8.683-10.387,26.151-10.387,26.151L331,176.293s3.128-7.183,6.942-14.493C344.057,149.989,355.4,149.6,358.08,159.5Z" transform="translate(-275.277 -82.632)" opacity="0.2"/>
      <path id="Path_1177" data-name="Path 1177" d="M336.21,177.669l6.573,3.687,1.157-20.176C340.113,164.117,337.418,172.965,336.21,177.669Z" transform="translate(-273.864 -80.27)" opacity="0.2"/>
      <path id="Path_1178" data-name="Path 1178" d="M345.322,153.494s-12.993,28.91-5.416,82.739h51.2c.814-7.857-1.882-46.2,7.87-83.222a130.233,130.233,0,0,0-17.01-2.174,188,188,0,0,0-21.753,0,100.349,100.349,0,0,0-14.887,2.657Z" transform="translate(-273.504 -83.161)" fill="#407bff"/>
      <path id="Path_1179" data-name="Path 1179" d="M345.322,153.494s-12.993,28.91-5.416,82.739h51.2c.814-7.857-1.882-46.2,7.87-83.222a130.233,130.233,0,0,0-17.01-2.174,188,188,0,0,0-21.753,0,100.349,100.349,0,0,0-14.887,2.657Z" transform="translate(-273.504 -83.161)" opacity="0.2"/>
      <path id="Path_1180" data-name="Path 1180" d="M334.32,417.666c-.076,1.373,19.337,2.479,43.353,2.479s43.569-1.106,43.645-2.479-19.324-2.466-43.353-2.466S334.409,416.306,334.32,417.666Z" transform="translate(-274.376 -11.344)" fill="#e8ecf1"/>
      <rect id="Rectangle_188" data-name="Rectangle 188" width="9.737" height="21.667" transform="translate(85.038 373.76) rotate(-21.161)" fill="#e58a7b"/>
      <path id="Path_1181" data-name="Path 1181" d="M395.842,414.179h-9.573L382.76,392.02h9.573Z" transform="translate(-261.233 -17.634)" fill="#e58a7b"/>
      <path id="Path_1182" data-name="Path 1182" d="M388.29,408.58h10.756a.788.788,0,0,1,.776.661l1.386,8.505a1.5,1.5,0,0,1-1.5,1.7c-3.75-.064-5.556-.292-10.285-.292-2.911,0-8.9.305-12.942.305s-4.31-3.967-2.644-4.335c7.475-1.615,10.374-3.814,12.866-5.95A2.4,2.4,0,0,1,388.29,408.58Z" transform="translate(-263.915 -13.14)" fill="#263238"/>
      <path id="Path_1183" data-name="Path 1183" d="M364.34,406.642l10.171-2.975a.826.826,0,0,1,.953.407l3.814,7.628a1.462,1.462,0,0,1-.953,2.021c-3.7,1.017-6.179,1.64-10.806,2.988-3.191.928-6.446,2.441-9.6,3.445-2.187.7-7.323.725-9.98.725-3.928,0-4.806-4.145-3.115-4.335,4.259-.47,4.831-.254,7.183-1.437a32.66,32.66,0,0,0,10.272-7.094A4.769,4.769,0,0,1,364.34,406.642Z" transform="translate(-271.748 -14.482)" fill="#263238"/>
      <path id="Path_1184" data-name="Path 1184" d="M305,192.412,294.475,188l-4.335,11.671a43.225,43.225,0,0,0,13.018,0Z" transform="translate(-286.364 -72.992)" fill="#e58a7b"/>
      <path id="Path_1185" data-name="Path 1185" d="M287.45,187.76l-.28,7.755,3.776,4.2,4.335-11.671Z" transform="translate(-287.17 -73.057)" fill="#e58a7b"/>
      <rect id="Rectangle_189" data-name="Rectangle 189" width="9.764" height="11.2" transform="translate(86.255 375.477) rotate(-21.11)" fill="#cf6f64"/>
      <path id="Path_1186" data-name="Path 1186" d="M392.333,392.02H382.76l1.818,11.429h9.573Z" transform="translate(-261.233 -17.634)" fill="#cf6f64"/>
      <path id="Path_1187" data-name="Path 1187" d="M338.12,214.619c.191,2.3.407,4.653.687,7.069l38.064-12.357a27.257,27.257,0,0,0,14.646-10.59c.153-3.394.343-6.967.636-10.692.127-1.805.28-3.661.445-5.543s.394-3.967.636-5.975Z" transform="translate(-273.345 -76.105)" opacity="0.2"/>
      <path id="Path_1188" data-name="Path 1188" d="M348.171,176.122l-1.271-.153c.75-6.357,5.492-11.366,10.489-11.239V166C353.015,165.913,348.845,170.426,348.171,176.122Z" transform="translate(-270.963 -79.307)" fill="#fff"/>
      <path id="Path_1189" data-name="Path 1189" d="M353.276,185.343h-.216v-1.271c4.373.165,8.48-4.4,9.154-10.082l1.271.153C362.811,180.359,358.222,185.343,353.276,185.343Z" transform="translate(-269.291 -76.794)" fill="#fff"/>
      <path id="Path_1190" data-name="Path 1190" d="M376.774,131.5c-1.793,7.005-3.9,19.833.712,24.5,0,0-3.229,7.107-16.235,7.107-11.887,0-5.518-7.107-5.518-7.107,7.908-1.856,8.048-7.628,7.005-13.095Z" transform="translate(-269.028 -88.323)" fill="#e58a7b"/>
      <path id="Path_1191" data-name="Path 1191" d="M369.192,135.16l-8.3,6.751a22.373,22.373,0,0,1,.445,3.814c2.428,2.416,7.3-3.7,7.793-6.827A10.171,10.171,0,0,0,369.192,135.16Z" transform="translate(-267.167 -87.33)" fill="#cf6f64"/>
      <path id="Path_1192" data-name="Path 1192" d="M349.789,132.8a8.4,8.4,0,0,0,5.4,3.992c3.051.674,4.577-2.136,3.738-4.958-.75-2.543-3.255-5.963-6.357-5.378a4.246,4.246,0,0,0-2.784,6.344Z" transform="translate(-270.343 -89.71)" fill="#cf6f64"/>
      <path id="Path_1193" data-name="Path 1193" d="M354.546,113.882c-4.755,2.174-6.433,21.066-.458,23.863S363.547,109.75,354.546,113.882Z" transform="translate(-270.053 -93.207)" fill="#263238"/>
      <path id="Path_1194" data-name="Path 1194" d="M378.953,126.192c-1.144,9.484-1.271,15.065-6.357,19.922a12.23,12.23,0,0,1-20.8-6.484c-1.538-8.518.585-22.592,10.094-26.368a12.243,12.243,0,0,1,17.061,12.93Z" transform="translate(-269.758 -93.554)" fill="#e58a7b"/>
      <path id="Path_1195" data-name="Path 1195" d="M364.88,123.12c7.043-1.793,12.218-3.013,10.361,2.848-2.454,7.831-5.4,15.409-1.449,15.752,2.416.216,13.095-4.31,11.734-8.9-1.182-3.992,3.814-5.085,4.7-7.107,3.293-7.323-6.128-6.357-4.45-10.806s-7.628-11.62-12.713-8.048c-8.276,5.772-22.477,5.683-15.014-3.814,5.352-6.776-4.2-5.39-4.2-5.39s5.772,3.42-3.941,8.709C339.644,112.008,349.064,127.175,364.88,123.12Z" transform="translate(-271.309 -97.538)" fill="#263238"/>
      <path id="Path_1196" data-name="Path 1196" d="M378.022,132.8a9.853,9.853,0,0,1-5.861,3.992c-3.14.674-4.348-2.136-3.166-4.958,1.055-2.543,3.954-5.963,6.954-5.378S379.636,130.306,378.022,132.8Z" transform="translate(-265.089 -89.71)" fill="#e58a7b"/>
      <path id="Path_1197" data-name="Path 1197" d="M341.381,217.94s-8.594,76.916-9.268,106.106c-.687,30.36,29.126,125.087,29.126,125.087l15.256-6.357s-17.8-86.553-15.256-116.366c2.7-32.508,13.832-108.42,13.832-108.42Z" transform="translate(-274.979 -64.868)" fill="#407bff"/>
      <path id="Path_1198" data-name="Path 1198" d="M356.952,235.207c-6.853,14.214-2.238,42.323,1.475,58.977,1.411-11.76,3.089-24.524,4.679-36.335C362.953,239.7,361.542,225.672,356.952,235.207Z" transform="translate(-269.191 -61.019)" opacity="0.2"/>
      <path id="Path_1199" data-name="Path 1199" d="M370.452,390.83c.076,0,1.805,4.857,1.805,4.857l-17.6,7.4-2.772-5.162Z" transform="translate(-269.609 -17.957)" fill="#407bff"/>
      <path id="Path_1200" data-name="Path 1200" d="M353.69,217.94s6.573,73.153,10.921,100.55c4.78,30.016,23.52,129.982,23.52,129.982h17.532s-10.5-97.537-12.485-127.261c-2.161-32.241-6.458-103.271-6.458-103.271Z" transform="translate(-269.121 -64.868)" fill="#407bff"/>
      <path id="Path_1201" data-name="Path 1201" d="M399.062,395.835c.076,0,.585,4.895.585,4.895H380.373L379,395.11Z" transform="translate(-262.253 -16.795)" fill="#407bff"/>
      <path id="Path_1202" data-name="Path 1202" d="M393.209,435.907a.165.165,0,0,1-.165-.14c-.1-.89-9.573-88.994-11.353-115.692-1.932-28.961-5.823-93.2-5.861-93.85a.153.153,0,0,1,.153-.165h0a.165.165,0,0,1,.165.153c0,.648,3.928,64.838,5.861,93.85,1.78,26.7,11.251,114.738,11.34,115.692a.153.153,0,0,1-.14.178Z" transform="translate(-263.113 -62.665)" opacity="0.2"/>
      <path id="Path_1203" data-name="Path 1203" d="M362.009,125.588c0,.776-.483,1.4-.992,1.4s-.877-.623-.826-1.4.483-1.4.992-1.4S362.06,124.826,362.009,125.588Z" transform="translate(-267.358 -90.306)" fill="#263238"/>
      <path id="Path_1204" data-name="Path 1204" d="M355.151,125.588c0,.776-.5,1.4-.992,1.4s-.877-.623-.839-1.4.5-1.4,1-1.4S355.2,124.826,355.151,125.588Z" transform="translate(-269.221 -90.306)" fill="#263238"/>
      <path id="Path_1205" data-name="Path 1205" d="M357.788,125.6a29.621,29.621,0,0,1-4.068,6.6c1.271,1.271,3.649.687,3.649.687Z" transform="translate(-269.112 -89.924)" fill="#df5753"/>
      <path id="Path_1206" data-name="Path 1206" d="M357.146,134.5a.216.216,0,0,1-.216-.229.242.242,0,0,1,.242-.229,6.509,6.509,0,0,0,5.085-2.39.241.241,0,0,1,.318,0,.229.229,0,0,1,0,.318A6.941,6.941,0,0,1,357.146,134.5Z" transform="translate(-268.241 -88.298)" fill="#263238"/>
      <path id="Path_1207" data-name="Path 1207" d="M363.749,123.768a.432.432,0,0,1-.394,0,3.611,3.611,0,0,0-3.242-.343.432.432,0,0,1-.585-.2.471.471,0,0,1,.242-.61,4.462,4.462,0,0,1,4.106.381.445.445,0,0,1,.114.623A.508.508,0,0,1,363.749,123.768Z" transform="translate(-267.546 -90.825)" fill="#263238"/>
      <path id="Path_1208" data-name="Path 1208" d="M352.177,121.947a.369.369,0,0,1-.178-.1.445.445,0,0,1,0-.636,4.755,4.755,0,0,1,3.916-1.576.432.432,0,0,1,.356.521.5.5,0,0,1-.534.381h0a3.814,3.814,0,0,0-3.089,1.271.47.47,0,0,1-.47.14Z" transform="translate(-269.616 -91.547)" fill="#263238"/>
      <path id="Path_1209" data-name="Path 1209" d="M402.462,163.072,389.24,159.55s-12.968,31.923-17.557,34c-6.23,2.848-22.007,12.713-28.72,17.379-.369,1.589-.076,5.8.763,6.954,11.442-2.085,33.347-10.514,37.924-14.8C392.088,193.3,402.462,163.072,402.462,163.072Z" transform="translate(-272.074 -80.712)" fill="#e58a7b"/>
      <path id="Path_1210" data-name="Path 1210" d="M382.948,410.418a2.784,2.784,0,0,1-1.818-.5,1.271,1.271,0,0,1-.394-1.2.75.75,0,0,1,.432-.636c1.068-.547,4.056,1.348,4.4,1.564a.2.2,0,0,1,.089.229.267.267,0,0,1-.178.191,12.049,12.049,0,0,1-2.53.343Zm-1.271-1.983a.674.674,0,0,0-.292,0,.28.28,0,0,0-.153.267.865.865,0,0,0,.254.826c.5.445,1.742.5,3.382.178a8.429,8.429,0,0,0-3.229-1.271Z" transform="translate(-261.789 -13.3)" fill="#407bff"/>
      <path id="Path_1211" data-name="Path 1211" d="M384.967,410.549a.165.165,0,0,1-.1,0c-.953-.534-2.746-2.632-2.479-3.7a.776.776,0,0,1,.75-.6,1.2,1.2,0,0,1,.953.292c1.055.9,1.119,3.674,1.119,3.814a.191.191,0,0,1-.114.2A.216.216,0,0,1,384.967,410.549Zm-1.7-3.878h-.089c-.292,0-.331.165-.343.229-.153.623.979,2.212,1.92,2.962a5.263,5.263,0,0,0-.954-3,.776.776,0,0,0-.534-.191Z" transform="translate(-261.342 -13.775)" fill="#407bff"/>
      <path id="Path_1212" data-name="Path 1212" d="M356.567,409.086a3.648,3.648,0,0,1-2.4,0,1.2,1.2,0,0,1-.623-.966.75.75,0,0,1,.267-.674c1.017-.915,5.174,0,5.645.178a.2.2,0,0,1,.153.2.242.242,0,0,1-.14.229,18.618,18.618,0,0,1-2.9,1.03Zm-2.072-1.513a.878.878,0,0,0-.394.191.267.267,0,0,0-.1.267.8.8,0,0,0,.407.648c.674.356,2.238.076,4.259-.775a12.51,12.51,0,0,0-4.17-.331Z" transform="translate(-269.163 -13.557)" fill="#407bff"/>
      <path id="Path_1213" data-name="Path 1213" d="M359.022,408.628h-.1c-1.271-.229-3.814-1.691-3.89-2.784,0-.254.114-.61.725-.814a1.627,1.627,0,0,1,1.271.076c1.373.674,2.1,3.115,2.136,3.229a.338.338,0,0,1-.14.292Zm-3.013-3.216h-.127c-.394.14-.394.305-.394.356,0,.661,1.843,1.869,3.127,2.276a4.805,4.805,0,0,0-1.78-2.543,1.17,1.17,0,0,0-.826-.089Z" transform="translate(-268.757 -14.129)" fill="#407bff"/>
      <path id="Path_1214" data-name="Path 1214" d="M346.938,199.37l-13.26,6.1-1.538,3.814,4.895,3.293s9.154-.992,11.76-6.878Z" transform="translate(-274.968 -69.907)" fill="#e58a7b"/>
      <path id="Path_1215" data-name="Path 1215" d="M344.746,207.472a17.874,17.874,0,0,0-2.466-7.2l2.1-1.576a20.456,20.456,0,0,1,2.95,8.327Z" transform="translate(-272.216 -70.089)" fill="#263238"/>
      <path id="Path_1216" data-name="Path 1216" d="M347,201.056a2.543,2.543,0,1,1-3.1-.992,2.314,2.314,0,0,1,3.1.992Z" transform="translate(-272.208 -69.787)" fill="#263238"/>
      <path id="Path_1217" data-name="Path 1217" d="M326.3,209.1l1.767,1.78,11.9-5.085-4.7-1.627Z" transform="translate(-276.553 -68.605)" fill="#e58a7b"/>
      <path id="Path_1218" data-name="Path 1218" d="M370.452,390.83c.076,0,1.805,4.857,1.805,4.857l-17.6,7.4-2.772-5.162Z" transform="translate(-269.609 -17.957)" opacity="0.2"/>
      <path id="Path_1219" data-name="Path 1219" d="M399.062,395.835c.076,0,.585,4.895.585,4.895H380.373L379,395.11Z" transform="translate(-262.253 -16.795)" opacity="0.2"/>
      <path id="Path_1220" data-name="Path 1220" d="M398.64,161.37c3.5,11.277-10.171,26.7-10.171,26.7l-18.879-7.7a195.881,195.881,0,0,1,7.73-19.159C383.117,148.708,395.106,149.992,398.64,161.37Z" transform="translate(-264.806 -82.672)" fill="#407bff"/>
      <path id="Path_1221" data-name="Path 1221" d="M398.64,161.37c3.5,11.277-10.171,26.7-10.171,26.7l-18.879-7.7a195.881,195.881,0,0,1,7.73-19.159C383.117,148.708,395.106,149.992,398.64,161.37Z" transform="translate(-264.806 -82.672)" opacity="0.2"/>
    </g>
    <g id="freepik--Screen--inject-40" transform="translate(225.796 70.57)">
      <rect id="Rectangle_190" data-name="Rectangle 190" width="8.124" height="1.309" transform="translate(62.181)" fill="#407bff"/>
      <rect id="Rectangle_191" data-name="Rectangle 191" width="21.842" height="1.309" transform="translate(174.484 73.645) rotate(-87.42)" fill="#407bff"/>
      <path id="Path_1222" data-name="Path 1222" d="M360.607,75.19H210.589L196.63,387.583H346.648Z" transform="translate(-187.667 -69.316)" fill="#407bff"/>
      <path id="Path_1223" data-name="Path 1223" d="M357.087,78.57H207.069L193.11,390.964H343.128Z" transform="translate(-188.622 -68.399)" fill="#fafafa" opacity="0.56"/>
      <path id="Path_1224" data-name="Path 1224" d="M353.57,81.94H203.552L189.58,394.333H339.6Z" transform="translate(-189.58 -67.485)" fill="#407bff" opacity="0.07"/>
      <path id="Path_1225" data-name="Path 1225" d="M332.7,189.11H204.648l-1.068,23.9H331.629Z" transform="translate(-185.781 -38.405)" fill="#fff"/>
      <path id="Path_1226" data-name="Path 1226" d="M274.774,175.39H205.13l-.47,10.692H274.3Z" transform="translate(-185.488 -42.128)" fill="#407bff"/>
      <path id="Path_1227" data-name="Path 1227" d="M330.427,239.85H202.378l-1.068,23.9H329.359Z" transform="translate(-186.397 -24.638)" fill="#fff"/>
      <path id="Path_1228" data-name="Path 1228" d="M303.052,284.04H216.944l-1.284,28.643h86.108Z" transform="translate(-182.503 -12.647)" fill="#407bff" opacity="0.47"/>
      <path id="Path_1229" data-name="Path 1229" d="M298.274,316.243H212.166a.228.228,0,0,1-.114,0,.178.178,0,0,1,0-.114l1.271-28.656a.14.14,0,0,1,.153-.14h86.108a.114.114,0,0,1,.1,0,.1.1,0,0,1,0,.1l-1.246,28.72A.165.165,0,0,1,298.274,316.243Zm-85.955-.305h85.8l1.271-28.351h-85.8Z" transform="translate(-183.485 -11.757)" fill="#fff"/>
      <path id="Path_1230" data-name="Path 1230" d="M260.35,226.13H202.86l-.47,10.7h57.477Z" transform="translate(-186.104 -28.36)" fill="#407bff"/>
      <path id="Path_1231" data-name="Path 1231" d="M297.02,135.332a33.729,33.729,0,0,1-7.081,19.134A34.174,34.174,0,0,1,262.987,167.9a30.906,30.906,0,0,1-31.1-32.572A34.326,34.326,0,0,1,265.9,102.76a30.881,30.881,0,0,1,31.122,32.572Z" transform="translate(-178.112 -61.836)" fill="#fff"/>
      <path id="Path_1232" data-name="Path 1232" d="M289.218,109.965a8.9,8.9,0,0,1-1.882,5.085,9.115,9.115,0,0,1-7.17,3.572,8.238,8.238,0,0,1-6.84-3.572,8.4,8.4,0,0,1-1.424-5.085,9.128,9.128,0,0,1,9.039-8.645,8.213,8.213,0,0,1,8.276,8.645Z" transform="translate(-167.245 -62.226)" fill="#407bff"/>
      <path id="Path_1233" data-name="Path 1233" d="M216.907,199.324a4.056,4.056,0,0,1-4,3.814,3.623,3.623,0,0,1-3.661-3.814,4.03,4.03,0,0,1,4-3.814,3.636,3.636,0,0,1,3.661,3.814Z" transform="translate(-184.247 -36.669)" fill="#263238"/>
      <path id="Path_1234" data-name="Path 1234" d="M230.385,199.324a4.043,4.043,0,0,1-4,3.814,3.623,3.623,0,0,1-3.649-3.814,4.03,4.03,0,0,1,3.992-3.814,3.623,3.623,0,0,1,3.661,3.814Z" transform="translate(-180.586 -36.669)" fill="#263238"/>
      <path id="Path_1235" data-name="Path 1235" d="M243.877,199.324a4.043,4.043,0,0,1-4,3.814,3.636,3.636,0,0,1-3.661-3.814,4.043,4.043,0,0,1,4-3.814,3.623,3.623,0,0,1,3.661,3.814Z" transform="translate(-176.928 -36.669)" fill="#263238"/>
      <path id="Path_1236" data-name="Path 1236" d="M214.637,250.064a4.056,4.056,0,0,1-4,3.814,3.636,3.636,0,0,1-3.661-3.814,4.043,4.043,0,0,1,4-3.814,3.636,3.636,0,0,1,3.661,3.814Z" transform="translate(-184.862 -22.901)" fill="#263238"/>
      <path id="Path_1237" data-name="Path 1237" d="M228.115,250.064a4.043,4.043,0,0,1-3.992,3.814,3.623,3.623,0,0,1-3.661-3.814,4.043,4.043,0,0,1,4-3.814,3.623,3.623,0,0,1,3.649,3.814Z" transform="translate(-181.202 -22.901)" fill="#263238"/>
      <path id="Path_1238" data-name="Path 1238" d="M241.637,250.064a4.043,4.043,0,0,1-4,3.814,3.649,3.649,0,0,1-3.661-3.814,4.056,4.056,0,0,1,4-3.814,3.623,3.623,0,0,1,3.661,3.814Z" transform="translate(-177.536 -22.901)" fill="#263238"/>
      <path id="Path_1239" data-name="Path 1239" d="M255.1,250.064a4.056,4.056,0,0,1-4,3.814,3.649,3.649,0,0,1-3.661-3.814,4.056,4.056,0,0,1,4-3.814,3.636,3.636,0,0,1,3.661,3.814Z" transform="translate(-173.884 -22.901)" fill="#263238"/>
      <path id="Path_1240" data-name="Path 1240" d="M268.637,250.064a4.056,4.056,0,0,1-4,3.814,3.623,3.623,0,0,1-3.661-3.814,4.043,4.043,0,0,1,4-3.814,3.636,3.636,0,0,1,3.661,3.814Z" transform="translate(-170.21 -22.901)" fill="#263238"/>
      <ellipse id="Ellipse_24" data-name="Ellipse 24" cx="13.476" cy="12.879" rx="13.476" ry="12.879" transform="translate(68.181 62.808) rotate(-44.36)" fill="#407bff"/>
      <path id="Path_1241" data-name="Path 1241" d="M288.784,145.6a34.174,34.174,0,0,1-26.952,13.438A30.855,30.855,0,0,1,236.1,145.6c6.179-6.153,15.955-10.171,26.787-10.171S283.152,139.447,288.784,145.6Z" transform="translate(-176.957 -52.971)" fill="#407bff"/>
      <ellipse id="Ellipse_25" data-name="Ellipse 25" cx="13.476" cy="12.879" rx="13.476" ry="12.879" transform="translate(68.181 62.808) rotate(-44.36)" fill="#fff" opacity="0.1"/>
      <path id="Path_1242" data-name="Path 1242" d="M288.784,145.6a34.174,34.174,0,0,1-26.952,13.438A30.855,30.855,0,0,1,236.1,145.6c6.179-6.153,15.955-10.171,26.787-10.171S283.152,139.447,288.784,145.6Z" transform="translate(-176.957 -52.971)" fill="#fff" opacity="0.1"/>
    </g>
    <g id="freepik--character-1--inject-40" transform="translate(123.046 181.521)">
      <path id="Path_1243" data-name="Path 1243" d="M134.827,213.414c-1.208,2.644-2.479,5.556-3.585,8.378s-2.238,5.734-3.216,8.632a109.642,109.642,0,0,0-4.551,17.544l-.28,1.869a2.733,2.733,0,0,0,.089.954,9.916,9.916,0,0,0,1.4,2.949,37.225,37.225,0,0,0,5.645,6.357,85.629,85.629,0,0,0,7.018,5.861c2.441,1.882,5.009,3.712,7.539,5.441l-2.377,4.462a90.1,90.1,0,0,1-17.1-9.8,41.179,41.179,0,0,1-7.628-7.221,18.117,18.117,0,0,1-3.038-5.429,12.332,12.332,0,0,1-.61-3.814v-1.589l.127-1.271a99.444,99.444,0,0,1,4.157-19.5c.992-3.128,2.047-6.242,3.255-9.281s2.454-6.013,3.992-9.1Z" transform="translate(-107.303 -144)" fill="#e58a7b"/>
      <path id="Path_1244" data-name="Path 1244" d="M137.415,258.4l8.988-4.551-2.327,9.866s-6.166,1.729-9.026-1.271Z" transform="translate(-101.627 -131.79)" fill="#e58a7b"/>
      <path id="Path_1245" data-name="Path 1245" d="M152.7,255.465l-2.39,8.162-8.162.089,2.327-9.866Z" transform="translate(-99.7 -131.79)" fill="#e58a7b"/>
      <path id="Path_1246" data-name="Path 1246" d="M160.435,175a25.426,25.426,0,0,0,2,5.085,2.072,2.072,0,0,1-2.021.648Z" transform="translate(-94.745 -153.185)" fill="#df5753"/>
      <ellipse id="Ellipse_26" data-name="Ellipse 26" cx="0.954" cy="1.462" rx="0.954" ry="1.462" transform="translate(64.47 18.967)" fill="#263238"/>
      <path id="Path_1247" data-name="Path 1247" d="M160,172.917l1.932-.547S160.992,173.87,160,172.917Z" transform="translate(-94.857 -153.899)" fill="#263238"/>
      <path id="Path_1248" data-name="Path 1248" d="M141.291,182.34c1.157,5.912,2.314,16.756-1.831,20.71,0,0,1.627,6,12.624,6,12.09,0,5.772-6,5.772-6-6.6-1.576-6.433-6.471-5.276-11.073Z" transform="translate(-100.43 -151.193)" fill="#e58a7b"/>
      <path id="Path_1249" data-name="Path 1249" d="M138.377,174.82c.61,9.878.661,14.074,5.645,19.146,7.514,7.628,19.515,4.729,21.867-5.085,2.123-8.9.776-23.545-8.9-27.474a13.5,13.5,0,0,0-18.612,13.413Z" transform="translate(-100.732 -157.149)" fill="#e58a7b"/>
      <path id="Path_1250" data-name="Path 1250" d="M141.37,163.1c-4.958,1.805-11.569.458-8.976,15.752,2.746,16.2-1.475,21.524-1.475,21.524s18.8,4,38-.242c0,0-5.861-10.247-4.221-17.8,2.1-9.535.445-13.057.445-13.057S148.337,160.556,141.37,163.1Z" transform="translate(-102.747 -156.54)" fill="#263238"/>
      <path id="Path_1251" data-name="Path 1251" d="M155.64,176.384a9.929,9.929,0,0,0,1.551,5.3c1.348,2.06,2.937,1.271,3.331-.915.356-1.92.089-5.314-1.627-6.636S155.665,174.108,155.64,176.384Z" transform="translate(-96.04 -153.564)" fill="#e58a7b"/>
      <path id="Path_1252" data-name="Path 1252" d="M135.79,166.065c-1.424-4,5.365-10.171,19.731-7.628s14.989,14.506,14.989,14.506l-2.9-3.458.127,3.636-14.76,2.835Z" transform="translate(-101.476 -157.841)" fill="#263238"/>
      <path id="Path_1253" data-name="Path 1253" d="M136.715,200.068h0a2.25,2.25,0,0,1,1.843-2.543c4.475-.737,14.646-2.238,19.757-1.526,3.814.534,4.806,2.746,4.971,4.564a2.238,2.238,0,0,1-2.352,2.416l-22.1-.992a2.263,2.263,0,0,1-2.123-1.92Z" transform="translate(-101.181 -147.538)" fill="#407bff"/>
      <path id="Path_1254" data-name="Path 1254" d="M136.715,200.068h0a2.25,2.25,0,0,1,1.843-2.543c4.475-.737,14.646-2.238,19.757-1.526,3.814.534,4.806,2.746,4.971,4.564a2.238,2.238,0,0,1-2.352,2.416l-22.1-.992a2.263,2.263,0,0,1-2.123-1.92Z" transform="translate(-101.181 -147.538)" opacity="0.6"/>
      <path id="Path_1255" data-name="Path 1255" d="M146.76,377.827l8.2,5.7,13.718-18.6-8.2-5.683Z" transform="translate(-98.449 -103.193)" fill="#e58a7b"/>
      <path id="Path_1256" data-name="Path 1256" d="M131.72,377.768l8.658,4.933,12.141-19.668-8.658-4.933Z" transform="translate(-102.53 -103.503)" fill="#e58a7b"/>
      <path id="Path_1257" data-name="Path 1257" d="M167.249,364.923l-7.069,9.586-8.2-5.683,7.069-9.586Z" transform="translate(-97.033 -103.193)" fill="#cf6f64"/>
      <path id="Path_1258" data-name="Path 1258" d="M142.595,358.1l8.671,4.945-6.255,10.133-8.671-4.945Z" transform="translate(-101.276 -103.503)" fill="#cf6f64"/>
      <path id="Path_1259" data-name="Path 1259" d="M159.03,248s32.012,40.34,26,78.925c-4.844,31.161-32.94,73.356-32.94,73.356l-13.209-6.56a431.314,431.314,0,0,0,23.774-57.77,42.7,42.7,0,0,0-5.085-37C141.346,275.27,115.36,289.369,132.841,248Z" transform="translate(-103.803 -133.377)" fill="#407bff"/>
      <path id="Path_1260" data-name="Path 1260" d="M159.03,248s32.012,40.34,26,78.925c-4.844,31.161-32.94,73.356-32.94,73.356l-13.209-6.56a431.314,431.314,0,0,0,23.774-57.77,42.7,42.7,0,0,0-5.085-37C141.346,275.27,115.36,289.369,132.841,248Z" transform="translate(-103.803 -133.377)" opacity="0.6"/>
      <path id="Path_1261" data-name="Path 1261" d="M165.543,269.368l-4.653-4.628c0,.369,9.014,56.015,11.544,71.653a94.748,94.748,0,0,0,3.42-13.985C178.829,303.478,172.612,284.141,165.543,269.368Z" transform="translate(-94.615 -128.835)" opacity="0.4"/>
      <path id="Path_1262" data-name="Path 1262" d="M171.428,248s38.547,50.7,39.64,81.1c.9,25.427-41.954,74.691-41.954,74.691l-12.459-8.06s25.084-34.987,31.4-63.567C185.616,303.837,134,248,134,248Z" transform="translate(-101.911 -133.377)" fill="#407bff"/>
      <path id="Path_1263" data-name="Path 1263" d="M171.428,248s38.547,50.7,39.64,81.1c.9,25.427-41.954,74.691-41.954,74.691l-12.459-8.06s25.084-34.987,31.4-63.567C185.616,303.837,134,248,134,248Z" transform="translate(-101.911 -133.377)" opacity="0.6"/>
      <path id="Path_1264" data-name="Path 1264" d="M127.653,200.447c-4.119.979-8.073,15.955-8.073,15.955l16.108,10.756s5.365-11.849,3.483-17.036C137.226,204.719,132.827,199.214,127.653,200.447Z" transform="translate(-105.824 -146.328)" fill="#407bff"/>
      <path id="Path_1265" data-name="Path 1265" d="M128.649,208l-1.119,13.057,5.988,4.017a53.651,53.651,0,0,0,3.649-11.62Z" transform="translate(-103.667 -144.231)" opacity="0.2"/>
      <path id="Path_1266" data-name="Path 1266" d="M178.385,201.256s4.755,1.665-4.768,60.2h-40.5c.687-16.527.7-26.7-7.183-60.49a119.871,119.871,0,0,1,17.2-2.263,128.609,128.609,0,0,1,18.4,0C169.435,199.425,178.385,201.256,178.385,201.256Z" transform="translate(-104.101 -146.844)" fill="#407bff"/>
      <path id="Path_1267" data-name="Path 1267" d="M172.487,208.876c.915,2.543,1.882,5.276,2.9,7.908s1.983,5.34,3.013,8.009l3.115,7.984.788,2,.407.992.191.5v.076a2.618,2.618,0,0,0-.89-.788,3.623,3.623,0,0,0-1.653-.5,3.318,3.318,0,0,0-1.411.267c-.585.267-.585.381-.572.369a1.54,1.54,0,0,0,.28-.292,17.325,17.325,0,0,0,1.818-2.962c.6-1.17,1.17-2.416,1.742-3.674,1.119-2.543,2.149-5.174,3.178-7.831s2.009-5.34,2.962-8.048l2.9-8.111,4.895,1.271c-.966,5.8-2.212,11.442-3.712,17.189-.725,2.861-1.576,5.7-2.543,8.556-.483,1.437-1.017,2.861-1.627,4.323a27.4,27.4,0,0,1-2.339,4.551,11.852,11.852,0,0,1-1.119,1.373,6.89,6.89,0,0,1-2.314,1.64,5.7,5.7,0,0,1-2.466.458,5.594,5.594,0,0,1-2.682-.8,6.84,6.84,0,0,1-2.314-2.4c-.191-.331-.356-.661-.47-.9l-.242-.483-.483-.992-.966-1.971c-1.271-2.644-2.543-5.314-3.649-8s-2.276-5.4-3.369-8.137-2.072-5.467-3-8.416Z" transform="translate(-94.083 -145.107)" fill="#e58a7b"/>
      <path id="Path_1268" data-name="Path 1268" d="M169.721,200.721c4.869,1.157,10.349,15.548,10.349,15.548l-14.481,12.319s-9.37-15.688-7.475-20.863C160.085,202.336,163.365,199.208,169.721,200.721Z" transform="translate(-95.437 -146.309)" fill="#407bff"/>
      <path id="Path_1269" data-name="Path 1269" d="M187.5,202.1l5.085-4.246,3.534,5.5-2.606,4.59s-4.145,3.814-7.806,1.869h0A6.573,6.573,0,0,1,187.5,202.1Z" transform="translate(-88.034 -146.985)" fill="#e58a7b"/>
      <path id="Path_1270" data-name="Path 1270" d="M200.187,197.863l-.381,1.386-8.048,1.348-.788-2.746Z" transform="translate(-86.453 -146.985)" fill="#e58a7b"/>
      <path id="Path_1271" data-name="Path 1271" d="M165.5,374.018l-14.519-9.382,2.606-4.526L169.9,370.141Z" transform="translate(-97.304 -102.957)" fill="#407bff"/>
      <path id="Path_1272" data-name="Path 1272" d="M143.8,377.437a8.746,8.746,0,0,1-3.585-1.271.229.229,0,0,1,0-.432c.394-.127,3.814-1.182,4.806-.369a.814.814,0,0,1,.28.775,1.348,1.348,0,0,1-.725,1.093,1.665,1.665,0,0,1-.775.2Zm-2.861-1.4c1.589.814,2.861,1.106,3.471.8a.89.89,0,0,0,.458-.737c0-.2,0-.292-.114-.343-.534-.432-2.441-.1-3.839.28Z" transform="translate(-100.267 -98.901)" fill="#263238"/>
      <path id="Path_1273" data-name="Path 1273" d="M140.294,376.836a.254.254,0,0,1-.178-.076.242.242,0,0,1,0-.229c0-.114.826-2.873,2.123-3.5a1.271,1.271,0,0,1,1.055,0,.839.839,0,0,1,.585.852c-.089,1.144-2.416,2.721-3.484,2.988Zm2.466-3.471a.865.865,0,0,0-.356.089c-.788.381-1.437,1.869-1.754,2.772,1.119-.47,2.657-1.716,2.708-2.416,0-.114,0-.254-.292-.381a.942.942,0,0,0-.305-.1Z" transform="translate(-100.26 -99.482)" fill="#263238"/>
      <path id="Path_1274" data-name="Path 1274" d="M158.245,381.969c-1.437,0-3.433-1.843-4.526-2.975a.229.229,0,0,1,0-.267.267.267,0,0,1,.242-.127c.509,0,4.92.661,5.543,1.907a.725.725,0,0,1,0,.737,1.271,1.271,0,0,1-1,.712Zm-3.687-2.8c1.6,1.551,3.013,2.416,3.814,2.314a.865.865,0,0,0,.661-.47.267.267,0,0,0,0-.292c-.331-.686-2.683-1.271-4.475-1.551Z" transform="translate(-96.572 -97.94)" fill="#263238"/>
      <path id="Path_1275" data-name="Path 1275" d="M154.706,379.587a4.159,4.159,0,0,1-.852-.064.229.229,0,0,1-.178-.14.267.267,0,0,1,0-.242c.076-.089,1.793-2.161,3.42-2.3a1.767,1.767,0,0,1,1.271.407c.5.432.47.814.343,1.055C158.393,379.168,156.193,379.587,154.706,379.587Zm-.331-.47c1.424.076,3.7-.394,3.992-1.017,0,0,.1-.2-.229-.483a1.271,1.271,0,0,0-.966-.305,5.569,5.569,0,0,0-2.8,1.818Z" transform="translate(-96.58 -98.419)" fill="#263238"/>
      <path id="Path_1276" data-name="Path 1276" d="M143.826,375.578l-10.781-3.051a.788.788,0,0,0-.953.445l-3.636,8.175a1.6,1.6,0,0,0,1.055,2.149c3.814.992,5.645,1.271,10.387,2.632,2.924.814,7.094,2.327,11.124,3.471s5.378-2.784,3.814-3.623c-7.069-3.738-7.628-6.357-9.56-9.154a2.619,2.619,0,0,0-1.449-1.043Z" transform="translate(-103.448 -99.597)" fill="#407bff"/>
      <path id="Path_1277" data-name="Path 1277" d="M157.514,379.129l-9.2-6.357a.788.788,0,0,0-1.042.1l-6.1,6.56a1.589,1.589,0,0,0,.305,2.365c3.242,2.174,4.92,3.051,8.976,5.861,2.543,1.729,7.463,5.568,10.9,7.959s5.988-.89,4.768-2.187c-5.467-5.835-6.662-9.5-7.564-12.815a2.631,2.631,0,0,0-1.03-1.487Z" transform="translate(-100.074 -99.563)" fill="#407bff"/>
      <path id="Path_1278" data-name="Path 1278" d="M151.611,371.162l-16.591-8.251,1.716-4.5,17.722,8.7Z" transform="translate(-101.635 -103.419)" fill="#407bff"/>
      <path id="Path_1279" data-name="Path 1279" d="M131.405,246.178l-1.4,3.661c-.14.28.191.572.661.572h42.056c.369,0,.674-.178.7-.407l.356-3.636c0-.242-.292-.458-.687-.458H132.066a.775.775,0,0,0-.661.267Z" transform="translate(-103.004 -133.945)" fill="#407bff"/>
      <path id="Path_1280" data-name="Path 1280" d="M131.405,246.178l-1.4,3.661c-.14.28.191.572.661.572h42.056c.369,0,.674-.178.7-.407l.356-3.636c0-.242-.292-.458-.687-.458H132.066a.775.775,0,0,0-.661.267Z" transform="translate(-103.004 -133.945)" fill="#fff" opacity="0.4"/>
      <path id="Path_1281" data-name="Path 1281" d="M136.625,250.842h-1.106c-.216,0-.381-.114-.369-.254l.521-4.717c0-.127.2-.242.42-.242H137.2c.216,0,.381.114.369.242l-.521,4.717C137.032,250.728,136.841,250.842,136.625,250.842Z" transform="translate(-101.6 -134.02)" fill="#407bff"/>
      <path id="Path_1282" data-name="Path 1282" d="M157.022,250.842h-1.093c-.216,0-.381-.114-.369-.254l.509-4.717c0-.127.216-.242.432-.242h1.093c.216,0,.394.114.369.242l-.509,4.717A.445.445,0,0,1,157.022,250.842Z" transform="translate(-96.061 -134.02)" fill="#407bff"/>
      <ellipse id="Ellipse_27" data-name="Ellipse 27" cx="34.059" cy="2.466" rx="34.059" ry="2.466" transform="translate(0 327.191)" fill="#f5f5f5"/>
      <path id="Path_1283" data-name="Path 1283" d="M160.994,449.709c-6.026-1.754-12.713-4-16.756-6.357-.114-.076-.242-.114-.356-.178V415.892h12.192a3.636,3.636,0,0,0,0-7.259H143.945V284.27h-7.323V408.632H124.506a3.636,3.636,0,1,0,0,7.259h12.116v27.245c-.114,0-.229.1-.343.178-4.106,2.39-10.743,4.64-16.769,6.357a1.78,1.78,0,0,0,.5,3.483H160.5a1.78,1.78,0,0,0,.5-3.445Z" transform="translate(-106.186 -123.536)" fill="#e0e0e0"/>
      <rect id="Rectangle_192" data-name="Rectangle 192" width="58.38" height="26.609" rx="5.18" transform="translate(4.882 148.072)" fill="#407bff"/>
      <path id="Path_1284" data-name="Path 1284" d="M117.45,295.25v2.314c0,1.907,2.072,3.458,4.615,3.458h36.869c2.543,0,4.615-1.551,4.615-3.458V295.25Z" transform="translate(-106.402 -120.556)" fill="#407bff"/>
      <path id="Path_1285" data-name="Path 1285" d="M117.45,295.25v2.314c0,1.907,2.072,3.458,4.615,3.458h36.869c2.543,0,4.615-1.551,4.615-3.458V295.25Z" transform="translate(-106.402 -120.556)" fill="#fff" opacity="0.3"/>
    </g>
  </g>
</svg>
