<svg id="Group_166" data-name="Group 166" xmlns="http://www.w3.org/2000/svg" width="15.641" height="11.73" viewBox="0 0 15.641 11.73">
  <g id="Group_165" data-name="Group 165">
    <path id="Path_1032" data-name="Path 1032" d="M7.029,64.952c2.147,1.818,5.913,5.016,7.02,6.014a.654.654,0,0,0,.946,0c1.108-1,4.875-4.2,7.021-6.015a.326.326,0,0,0,.046-.45A1.294,1.294,0,0,0,21.04,64H8.006a1.294,1.294,0,0,0-1.023.5A.326.326,0,0,0,7.029,64.952Z" transform="translate(-6.702 -64)" fill="#ff7c00"/>
    <path id="Path_1033" data-name="Path 1033" d="M15.452,126.442a.324.324,0,0,0-.347.047c-2.381,2.018-5.419,4.6-6.375,5.466a1.32,1.32,0,0,1-1.819,0c-1.019-.918-4.431-3.819-6.374-5.466a.326.326,0,0,0-.536.249v8.195a1.3,1.3,0,0,0,1.3,1.3H14.337a1.3,1.3,0,0,0,1.3-1.3v-8.195A.326.326,0,0,0,15.452,126.442Z" transform="translate(0 -124.505)" fill="#ff7c00"/>
  </g>
</svg>
