<svg xmlns="http://www.w3.org/2000/svg" width="62.574" height="71.246" viewBox="0 0 62.574 71.246">
  <g id="Layer_1" data-name="Layer 1" transform="translate(-50.21 -34.176)">
    <path id="Path_11006" data-name="Path 11006" d="M100.825,97.889a30.754,30.754,0,0,1-3.129-.024,1.561,1.561,0,0,0-1.7.964c-1.027,1.866-2.116,3.693-3.211,5.52-.858,1.446-1.731,1.422-2.526-.043q-3.2-5.872-6.359-11.758c-.284-.53-.554-1.008-1.258-.829-.877.227-1.928-.482-2.608.82-2.025,3.924-4.184,7.781-6.267,11.661-.873,1.605-1.707,1.634-2.656.053-1.138-1.822-2.213-3.635-3.24-5.515a1.5,1.5,0,0,0-1.639-.863c-2.044.13-4.093.217-6.137.231-.593,0-1.446-.121-1.7-.482s-.034-1.215.231-1.721q2.41-4.585,4.965-9.092a1.317,1.317,0,0,0-.347-1.986c-8.47-7.545-11.57-16.979-9.372-28.028,2.367-11.9,12.953-21.279,25.005-22.475a28.8,28.8,0,0,1,24.943,47.4,23.94,23.94,0,0,1-3.162,3.129c-.81.66-.8,1.138-.318,1.981,1.721,3.037,3.375,6.122,5.028,9.193q1.215,2.237-1.3,2.15c-1.085-.039-2.165-.106-3.249-.159Zm7.877-34.84a26.7,26.7,0,1,0-7.98,18.852,26.757,26.757,0,0,0,7.98-18.852ZM85.8,91.564c1.986,3.591,3.857,6.976,5.833,10.562a40.266,40.266,0,0,0,2.285-3.992,3.538,3.538,0,0,1,4.31-2.41,29.22,29.22,0,0,0,4.613.048L98.02,86.98a29.869,29.869,0,0,1-12.226,4.585ZM72.416,102.112,78.2,91.569A29.841,29.841,0,0,1,65.99,87L61.218,95.73c2.136,0,4.127.043,6.113,0a1.875,1.875,0,0,1,1.928,1.07C70.237,98.492,71.264,100.16,72.416,102.112Z" transform="translate(-1.545 0)" fill="#fff"/>
    <path id="Path_11007" data-name="Path 11007" d="M62.641,37.39l1.186,1.62L57.719,44.64l.376.588L56.22,43.9Z" transform="translate(-3.113 -1.665)" fill="#fff"/>
    <path id="Path_11008" data-name="Path 11008" d="M170.858,123.774l-1.928-1.234,3.244-6.6,2.1.762Z" transform="translate(-61.488 -42.347)" fill="#fff"/>
    <path id="Path_11009" data-name="Path 11009" d="M53.483,57.278l-1.345,2.256L50.21,58.57l1.35-2.41Z" transform="translate(0 -11.386)" fill="#fff"/>
    <path id="Path_11010" data-name="Path 11010" d="M166.166,134.884c-.641.8-1.162,1.446-1.745,2.174l-1.6-1.364,1.557-2.044Z" transform="translate(-58.323 -51.52)" fill="#fff"/>
    <path id="Path_11014" data-name="Path 11014" d="M100.377,85.9l1.162,1.581c-6.571,5.563-19.49,6.99-28.785-.873a23.45,23.45,0,0,1-4.377-31.017C75.319,45.532,88.6,42.254,98.984,48.068c12.052,6.749,14.009,19.905,11.059,27.7l-1.895-.627c1.885-7,.921-13.5-3.447-19.283a20.951,20.951,0,0,0-11.363-7.713A21.268,21.268,0,1,0,100.377,85.9Z" transform="translate(-7.339 -5.709)" fill="#fff"/>
    <path id="Path_11015" data-name="Path 11015" d="M100.6,76.1H97.36c-1.07,0-1.581-.444-1.519-1.509a1,1,0,0,0,0-.121,4.839,4.839,0,0,1,2.087-4.98c1.446-1.094,2.618-2.488,3.987-3.664a3.177,3.177,0,0,1,1.692-.675c1.2-.106,2.41-.034,3.611-.039.791,0,1.364.323,1.384,1.162.043,1.721,0,3.437,0,5.25h-2.121v-4.1c-1.658-.14-3.085-.4-4.3,1.012-1.036,1.21-2.357,2.179-3.461,3.341a9.1,9.1,0,0,0-1.027,1.991c1.494,0,2.531.029,3.563,0s1.625.4,1.62,1.557q-.039,5.717,0,11.44c0,1.065-.444,1.576-1.514,1.523H101c-2.107,0-2.107,0-1.793,2.237H110.13V88.273h-2.362c-.786,0-1.34-.294-1.345-1.176V79.176h2.15v6.937h2.333c1,0,1.49.419,1.475,1.446v3.857c0,1.017-.482,1.417-1.5,1.412q-6.267-.029-12.534,0c-.964,0-1.446-.381-1.446-1.345V87.391c0-.824.352-1.263,1.268-1.176.752.072,1.514,0,2.381,0Z" transform="translate(-23.59 -16.011)" fill="#fff"/>
    <path id="Path_11016" data-name="Path 11016" d="M150.908,117.3l-2.627,3.63-1.6-1.412a19.89,19.89,0,0,1,2.222-2.989c.284-.275,1.258.174,1.928.294Z" transform="translate(-49.964 -42.605)" fill="#fff"/>
    <path id="Path_11017" data-name="Path 11017" d="M119.7,83.62v2.791h-2.02V83.62Z" transform="translate(-34.944 -25.608)" fill="#fff"/>
  </g>
</svg>
