<svg id="message" xmlns="http://www.w3.org/2000/svg" width="17.011" height="12.921" viewBox="0 0 17.011 12.921">
  <path id="Path_1022" data-name="Path 1022" d="M13.522.5H3.489A3.365,3.365,0,0,0,0,3.718v4.97a3.212,3.212,0,0,0,2.468,3.044l1.685,1.554a.528.528,0,0,0,.7,0L6.4,11.86h7.119a3.365,3.365,0,0,0,3.489-3.218V3.718A3.365,3.365,0,0,0,13.522.5Zm2.492,8.142a2.4,2.4,0,0,1-2.492,2.3H6.2a.521.521,0,0,0-.352.135L4.505,12.311,3.079,11a.51.51,0,0,0-.232-.121A2.291,2.291,0,0,1,1,8.688V3.718a2.4,2.4,0,0,1,2.492-2.3H13.522a2.4,2.4,0,0,1,2.492,2.3Zm0,0" transform="translate(0 -0.5)" fill="#ff7c00"/>
  <path id="Path_1023" data-name="Path 1023" d="M152.585,144.328h-6.329a.5.5,0,0,0,0,1h6.329a.5.5,0,0,0,0-1Zm0,0" transform="translate(-140.915 -139.948)" fill="#ff7c00"/>
  <path id="Path_1024" data-name="Path 1024" d="M152.585,197.352h-6.329a.5.5,0,0,0,0,1h6.329a.5.5,0,1,0,0-1Zm0,0" transform="translate(-140.915 -191.358)" fill="#ff7c00"/>
</svg>
