<svg id="Group_163" data-name="Group 163" xmlns="http://www.w3.org/2000/svg" width="18.817" height="18.817" viewBox="0 0 18.817 18.817">
  <g id="Group_162" data-name="Group 162" transform="translate(0 0)">
    <path id="Path_1028" data-name="Path 1028" d="M.366,14.963l2.086-1.391,1.854-1.236a.821.821,0,0,1,1.1.179L6.557,13.99a.817.817,0,0,0,1.043.216,13.361,13.361,0,0,0,3.731-2.875A13.456,13.456,0,0,0,14.207,7.6a.817.817,0,0,0-.216-1.043L12.515,5.409a.821.821,0,0,1-.179-1.1l1.2-1.8L14.963.366A.821.821,0,0,1,16.069.117l1.648.989a2.013,2.013,0,0,1,.914,1.183c.451,1.643.541,5.267-5.267,11.075S3.932,19.081,2.289,18.631a2.013,2.013,0,0,1-1.183-.914L.118,16.069A.821.821,0,0,1,.366,14.963Z" transform="translate(0 0)" fill="#ff7c00"/>
    <path id="Path_1029" data-name="Path 1029" d="M288.646,62.441a5.521,5.521,0,0,0-5.515,5.515.324.324,0,1,1-.649,0,6.171,6.171,0,0,1,6.164-6.164.324.324,0,1,1,0,.649Z" transform="translate(-280.535 -59.521)" fill="#ff7c00"/>
    <path id="Path_1030" data-name="Path 1030" d="M286.7,115.4a3.573,3.573,0,0,0-3.569,3.569.324.324,0,1,1-.649,0,4.222,4.222,0,0,1,4.218-4.218.324.324,0,1,1,0,.649Z" transform="translate(-278.588 -110.539)" fill="#ff7c00"/>
    <path id="Path_1031" data-name="Path 1031" d="M284.753,168.372a1.624,1.624,0,0,0-1.622,1.622.324.324,0,0,1-.649,0,2.274,2.274,0,0,1,2.271-2.271.324.324,0,0,1,0,.649Z" transform="translate(-276.642 -161.559)" fill="#ff7c00"/>
  </g>
</svg>
