<svg xmlns="http://www.w3.org/2000/svg" width="22.076" height="22.438" viewBox="0 0 22.076 22.438">
  <g id="Group_833" data-name="Group 833" transform="translate(-41.238 -11)">
    <path id="Icon_awesome-google" data-name="Icon awesome-google" d="M22.076,12.044c0,6.4-4.383,10.956-10.857,10.956a11.219,11.219,0,1,1,0-22.437A10.789,10.789,0,0,1,18.742,3.5L15.688,6.434C11.694,2.58,4.266,5.475,4.266,11.781a7.027,7.027,0,0,0,6.953,7.084,6.066,6.066,0,0,0,6.369-4.836H11.219V10.171H21.9A9.835,9.835,0,0,1,22.076,12.044Z" transform="translate(41.238 10.438)" fill="#fff"/>
  </g>
</svg>
