<svg id="book" xmlns="http://www.w3.org/2000/svg" width="69" height="68.022" viewBox="0 0 69 68.022">
  <path id="Path_1009" data-name="Path 1009" d="M20.7,0A20.515,20.515,0,0,0,4.14,8.326a1.15,1.15,0,1,0,1.84,1.38,18.277,18.277,0,1,1-2.186,3.738,1.151,1.151,0,0,0-2.116-.909A20.675,20.675,0,0,0,12.086,39.5L9.579,48.9a3.45,3.45,0,0,0-3.07,2.53L3.542,62.536A3.45,3.45,0,0,0,5.98,66.757l4.439,1.15a3.5,3.5,0,0,0,4.232-2.358L17.617,54.44a3.45,3.45,0,0,0-1.38-3.726l2.518-9.384A17.822,17.822,0,0,0,20.7,41.4,20.7,20.7,0,0,0,20.7,0ZM15.4,53.808,12.419,64.917a1.149,1.149,0,0,1-1.4.8l-4.439-1.15a1.156,1.156,0,0,1-.816-1.414L8.74,52.026a1.137,1.137,0,0,1,1.4-.816l4.451,1.15a1.178,1.178,0,0,1,.805,1.449Zm-1.322-3.933-2.231-.587,2.4-8.936a20.855,20.855,0,0,0,2.208.61Zm0,0" transform="translate(0 0.001)" fill="#fff"/>
  <path id="Path_1010" data-name="Path 1010" d="M60.527,56.591a1.15,1.15,0,0,0,1.553-.483,16.1,16.1,0,1,0-3.922,4.934,1.151,1.151,0,0,0-1.472-1.771,13.8,13.8,0,1,1,4.922-10.614,13.64,13.64,0,0,1-1.564,6.383,1.149,1.149,0,0,0,.483,1.552Zm0,0" transform="translate(-27.108 -27.957)" fill="#fff"/>
  <path id="Path_1011" data-name="Path 1011" d="M197.75,344h-4.6a1.15,1.15,0,0,0,0,2.3h4.6a1.15,1.15,0,1,0,0-2.3Zm0,0" transform="translate(-164.4 -294.55)" fill="#fff"/>
  <path id="Path_1012" data-name="Path 1012" d="M161.15,310.32a1.15,1.15,0,0,0-1.15,1.15v12.891a1.15,1.15,0,1,0,2.3,0V311.47A1.15,1.15,0,0,0,161.15,310.32Zm0,0" transform="translate(-137 -265.711)" fill="#fff"/>
  <path id="Path_1013" data-name="Path 1013" d="M305.15,194.3h4.6a1.15,1.15,0,1,0,0-2.3h-4.6a1.15,1.15,0,1,0,0,2.3Zm0,0" transform="translate(-260.3 -164.4)" fill="#fff"/>
  <path id="Path_1014" data-name="Path 1014" d="M287.05,121.2H274.4v-8.05a1.15,1.15,0,0,0-1.15-1.15h-8.291a1.15,1.15,0,1,0,0,2.3H272.1v4.6h-7.141a1.15,1.15,0,1,0,0,2.3H272.1v6.9H261.75a1.15,1.15,0,0,0,0,2.3H272.1v9.2H258.3v-4.5a1.15,1.15,0,1,0-2.3,0V154.55a1.15,1.15,0,0,0,2.3,0V146.5h13.8v8.05a1.15,1.15,0,1,0,2.3,0V148.8h11.5v5.75a1.15,1.15,0,0,0,2.3,0v-32.2a1.15,1.15,0,0,0-1.15-1.15Zm-12.65,8.05h11.5v2.3H274.4Zm11.5-5.75v3.45H274.4V123.5Zm-27.6,20.7v-2.3h13.8v2.3Zm16.1,2.3V133.85h11.5V146.5Zm0,0" transform="translate(-219.2 -95.9)" fill="#fff"/>
  <path id="Path_1015" data-name="Path 1015" d="M129.15,160a1.15,1.15,0,1,0,0,2.3h3.45a1.15,1.15,0,0,0,0-2.3Zm0,0" transform="translate(-109.6 -137)" fill="#fff"/>
  <path id="Path_1016" data-name="Path 1016" d="M189.75,161.15A1.15,1.15,0,0,0,188.6,160h-3.45a1.15,1.15,0,1,0,0,2.3h3.45A1.15,1.15,0,0,0,189.75,161.15Zm0,0" transform="translate(-157.55 -137)" fill="#fff"/>
  <path id="Path_1017" data-name="Path 1017" d="M109.731,82.3a1.15,1.15,0,1,0,0-2.3H97.151A1.15,1.15,0,0,0,96,81.15V98.4a1.15,1.15,0,0,0,2.3,0h11.431a1.15,1.15,0,1,0,0-2.3H98.3V89.2h14.95a1.15,1.15,0,0,0,0-2.3H98.3V82.3Zm0,0" transform="translate(-82.2 -68.5)" fill="#fff"/>
</svg>
