<svg xmlns="http://www.w3.org/2000/svg" width="48" height="47" viewBox="0 0 48 47">
  <g id="Group_18" data-name="Group 18" transform="translate(-1366.844 -1125)">
    <g id="Path_1781" data-name="Path 1781" transform="translate(1366.844 1125)" fill="#fafafa" stroke-linecap="round">
      <path d="M 23.5 46.5 C 20.39480018615723 46.5 17.38274955749512 45.89194869995117 14.54751968383789 44.6927490234375 C 11.80875015258789 43.53435134887695 9.348990440368652 41.87590026855469 7.236539840698242 39.76345825195313 C 5.124100208282471 37.65100860595703 3.465650081634521 35.19124984741211 2.307250022888184 32.45248031616211 C 1.108049988746643 29.61725044250488 0.5 26.60519981384277 0.5 23.5 C 0.5 20.39480018615723 1.108049988746643 17.38274955749512 2.307250022888184 14.54751968383789 C 3.465650081634521 11.80875015258789 5.124100208282471 9.348990440368652 7.236539840698242 7.236539840698242 C 9.348990440368652 5.124100208282471 11.80875015258789 3.465650081634521 14.54751968383789 2.307250022888184 C 17.38274955749512 1.108049988746643 20.39480018615723 0.5 23.5 0.5 C 26.60519981384277 0.5 29.61725044250488 1.108049988746643 32.45248031616211 2.307250022888184 C 35.19124984741211 3.465650081634521 37.65100860595703 5.124100208282471 39.76345825195313 7.236539840698242 C 41.87590026855469 9.348990440368652 43.53435134887695 11.80875015258789 44.6927490234375 14.54751968383789 C 45.89194869995117 17.38274955749512 46.5 20.39480018615723 46.5 23.5 C 46.5 26.60519981384277 45.89194869995117 29.61725044250488 44.6927490234375 32.45248031616211 C 43.53435134887695 35.19124984741211 41.87590026855469 37.65100860595703 39.76345825195313 39.76345825195313 C 37.65100860595703 41.87590026855469 35.19124984741211 43.53435134887695 32.45248031616211 44.6927490234375 C 29.61725044250488 45.89194869995117 26.60519981384277 46.5 23.5 46.5 Z" stroke="none"/>
      <path d="M 23.5 1 C 20.46208000183105 1 17.51556015014648 1.594760894775391 14.74229049682617 2.767749786376953 C 12.06312942504883 3.90093994140625 9.656780242919922 5.523410797119141 7.590099334716797 7.590099334716797 C 5.523410797119141 9.656780242919922 3.90093994140625 12.06312942504883 2.767749786376953 14.74229049682617 C 1.594760894775391 17.51556015014648 1 20.46208000183105 1 23.5 C 1 26.53791999816895 1.594760894775391 29.48443984985352 2.767749786376953 32.25770950317383 C 3.90093994140625 34.93687057495117 5.523410797119141 37.34321975708008 7.590099334716797 39.4099006652832 C 9.656780242919922 41.47658920288086 12.06312942504883 43.09906005859375 14.74229049682617 44.23225021362305 C 17.51556015014648 45.40523910522461 20.46208000183105 46 23.5 46 C 26.53791999816895 46 29.48443984985352 45.40523910522461 32.25770950317383 44.23225021362305 C 34.93687057495117 43.09906005859375 37.34321975708008 41.47658920288086 39.4099006652832 39.4099006652832 C 41.47658920288086 37.34321975708008 43.09906005859375 34.93687057495117 44.23225021362305 32.25770950317383 C 45.40523910522461 29.48443984985352 46 26.53791999816895 46 23.5 C 46 20.46208000183105 45.40523910522461 17.51556015014648 44.23225021362305 14.74229049682617 C 43.09906005859375 12.06312942504883 41.47658920288086 9.656780242919922 39.4099006652832 7.590099334716797 C 37.34321975708008 5.523410797119141 34.93687057495117 3.90093994140625 32.25770950317383 2.767749786376953 C 29.48443984985352 1.594760894775391 26.53791999816895 1 23.5 1 M 23.5 0 C 36.47869110107422 0 47 10.52130889892578 47 23.5 C 47 36.47869110107422 36.47869110107422 47 23.5 47 C 10.52130889892578 47 0 36.47869110107422 0 23.5 C 0 10.52130889892578 10.52130889892578 0 23.5 0 Z" stroke="none" fill="#115faf"/>
    </g>
    <g id="Group_19" data-name="Group 19" transform="translate(1370.213 1125)">
      <circle id="Ellipse_2" data-name="Ellipse 2" cx="22.5" cy="22.5" r="22.5" transform="translate(-0.369)" fill="#115faf"/>
    </g>
    <g id="creativity" transform="translate(1378.338 1135.298)">
      <path id="Path_212" data-name="Path 212" d="M98.177,43.045a2.069,2.069,0,0,0-1.344,1.932,2.046,2.046,0,0,0,.237.942,1.649,1.649,0,0,0,0,3.085,2.046,2.046,0,0,0-.237.942,2.069,2.069,0,0,0,1.344,1.932,1.633,1.633,0,0,0-.1.552,1.645,1.645,0,0,0,2.241,1.545,1.652,1.652,0,0,0,3.143-.717v-11.6a1.652,1.652,0,0,0-3.143-.717,1.641,1.641,0,0,0-2.139,2.1Zm1.555-1.381a.829.829,0,0,1,.828.828h.828a1.641,1.641,0,0,0-.382-1.045.826.826,0,0,1,1.624.217v11.6a.826.826,0,0,1-1.624.217,1.64,1.64,0,0,0,.382-1.045h-.828a.828.828,0,1,1-.828-.828v-.828a1.641,1.641,0,0,0-1.056.391,1.241,1.241,0,1,1,1.47-1.219h.828A2.073,2.073,0,0,0,98.9,47.876a2.049,2.049,0,0,0-1.242.425V48.29a.828.828,0,1,1,0-1.657v-.011a2.049,2.049,0,0,0,1.242.425,2.073,2.073,0,0,0,2.071-2.071h-.828a1.242,1.242,0,1,1-1.47-1.219,1.641,1.641,0,0,0,1.056.391v-.828a.828.828,0,0,1,0-1.657Zm0,0" transform="translate(-91.035 -37.937)" fill="#fff"/>
      <path id="Path_213" data-name="Path 213" d="M259.731,40.836a1.648,1.648,0,0,0-.584.111,1.653,1.653,0,0,0-3.143.717v11.6a1.653,1.653,0,0,0,3.143.717,1.645,1.645,0,0,0,2.24-1.545,1.629,1.629,0,0,0-.1-.552,2.069,2.069,0,0,0,1.344-1.932,2.045,2.045,0,0,0-.237-.942,1.649,1.649,0,0,0,0-3.085,2.045,2.045,0,0,0,.237-.942,2.069,2.069,0,0,0-1.344-1.932,1.628,1.628,0,0,0,.1-.552,1.658,1.658,0,0,0-1.656-1.657Zm2.071,4.141a1.242,1.242,0,1,1-2.485,0h-.828a2.073,2.073,0,0,0,2.071,2.071,2.048,2.048,0,0,0,1.242-.425v.011a.828.828,0,1,1,0,1.657V48.3a2.049,2.049,0,0,0-1.242-.425,2.073,2.073,0,0,0-2.071,2.071h.828a1.242,1.242,0,1,1,1.47,1.219,1.642,1.642,0,0,0-1.056-.391V51.6a.828.828,0,1,1-.828.828h-.828a1.64,1.64,0,0,0,.382,1.045.826.826,0,0,1-1.624-.217v-11.6a.826.826,0,0,1,1.624-.217,1.64,1.64,0,0,0-.382,1.045h.828a.828.828,0,1,1,.828.828v.828a1.641,1.641,0,0,0,1.056-.391A1.242,1.242,0,0,1,261.8,44.977Zm0,0" transform="translate(-242.752 -37.937)" fill="#fff"/>
      <path id="Path_214" data-name="Path 214" d="M80.055,2.584A9.446,9.446,0,0,0,72.925.021l.051.826a8.7,8.7,0,0,1,5.356,15.93,5.12,5.12,0,0,0-1.871,2.274H70.588a5.2,5.2,0,0,0-1.881-2.292,8.658,8.658,0,0,1-3.866-7.511l-.828-.026a9.48,9.48,0,0,0,4.234,8.225,4.364,4.364,0,0,1,1.432,1.6H68.564v.828h1.447a4.78,4.78,0,0,1,.177.828h-.8v.828h.828v1.242a.414.414,0,0,0,.414.414h.414a2.485,2.485,0,1,0,4.97,0h.414a.414.414,0,0,0,.414-.414V21.536h.828v-.828h-.8a4.617,4.617,0,0,1,.166-.828H78.5v-.828H77.369a4.27,4.27,0,0,1,1.422-1.584A9.524,9.524,0,0,0,80.055,2.584ZM73.534,24.849a1.658,1.658,0,0,1-1.657-1.657H75.19A1.658,1.658,0,0,1,73.534,24.849Zm2.485-2.485h-4.97v-.828h4.97Zm.03-1.657H71.016a5.638,5.638,0,0,0-.14-.828h5.3A5.5,5.5,0,0,0,76.048,20.708Zm0,0" transform="translate(-60.695 -0.001)" fill="#fff"/>
      <path id="Path_215" data-name="Path 215" d="M48.418,2.907a1.658,1.658,0,0,1,1.657,1.657.414.414,0,1,0,.828,0,1.658,1.658,0,0,1,1.657-1.657.414.414,0,1,0,0-.828A1.658,1.658,0,0,1,50.9.422a.414.414,0,1,0-.828,0,1.658,1.658,0,0,1-1.657,1.657.414.414,0,1,0,0,.828Zm2.071-1.113a2.506,2.506,0,0,0,.7.7,2.509,2.509,0,0,0-.7.7,2.506,2.506,0,0,0-.7-.7A2.5,2.5,0,0,0,50.489,1.794Zm0,0" transform="translate(-45.519 -0.007)" fill="#fff"/>
      <path id="Path_216" data-name="Path 216" d="M4.559,82.907a.414.414,0,1,0,0-.828A1.658,1.658,0,0,1,2.9,80.422a.414.414,0,0,0-.828,0A1.658,1.658,0,0,1,.418,82.079a.414.414,0,1,0,0,.828,1.658,1.658,0,0,1,1.657,1.657.414.414,0,1,0,.828,0A1.658,1.658,0,0,1,4.559,82.907Zm-2.071.285a2.506,2.506,0,0,0-.7-.7,2.509,2.509,0,0,0,.7-.7,2.512,2.512,0,0,0,.7.7A2.509,2.509,0,0,0,2.489,83.191Zm0,0" transform="translate(-0.004 -75.866)" fill="#fff"/>
    </g>
  </g>
</svg>
