<svg xmlns="http://www.w3.org/2000/svg" width="26.998" height="26.995" viewBox="0 0 26.998 26.995">
  <path id="Icon_ionic-ios-send" data-name="Icon ionic-ios-send" d="M5.353,4.563l25.812,11.25a.592.592,0,0,1-.021,1.076l-6.982,3.945a1.126,1.126,0,0,1-1.287-.127L9.108,8.838c-.091-.077-.309-.225-.394-.141s.049.3.127.394L20.752,22.507a1.122,1.122,0,0,1,.113,1.343L16.3,31.17a.594.594,0,0,1-1.069-.014L4.559,5.344A.592.592,0,0,1,5.353,4.563Z" transform="translate(-4.503 -4.503)" fill="#ff7c00"/>
</svg>
