<svg xmlns="http://www.w3.org/2000/svg" width="86" height="84" viewBox="0 0 86 84">
  <g id="Group_18" data-name="Group 18" transform="translate(-1367 -1125)">
    <g id="Ellipse_3" data-name="Ellipse 3" transform="translate(1367 1125)" fill="#fafafa" stroke="#ff7c00" stroke-linecap="round" stroke-width="2">
      <circle cx="42" cy="42" r="42" stroke="none"/>
      <circle cx="42" cy="42" r="41" fill="none"/>
    </g>
    <g id="Group_19" data-name="Group 19" transform="translate(1372.733 1125)">
      <ellipse id="Ellipse_2" data-name="Ellipse 2" cx="40" cy="39.5" rx="40" ry="39.5" transform="translate(0.267)" fill="#ff7c00"/>
    </g>
    <g id="vision" transform="translate(1390 1108.464)">
      <g id="Group_949" data-name="Group 949" transform="translate(0 39.999)">
        <g id="Group_948" data-name="Group 948" transform="translate(0)">
          <path id="Path_11023" data-name="Path 11023" d="M45.183,58.471A26.48,26.48,0,0,0,23.4,46.063V40h-1.51v6.064A26.48,26.48,0,0,0,.116,58.471a.755.755,0,0,0,0,.8A26.48,26.48,0,0,0,21.895,71.684v6.064H23.4V71.684A26.48,26.48,0,0,0,45.183,59.276.755.755,0,0,0,45.183,58.471Zm-43.53.4A24.99,24.99,0,0,1,14.661,48.845a12.808,12.808,0,0,0-4.808,9.273H3.775v1.51H9.853A12.808,12.808,0,0,0,14.661,68.9,24.99,24.99,0,0,1,1.653,58.874Zm20.242,6.795V70.16A11.325,11.325,0,0,1,11.363,59.629h4.491v-1.51H11.363A11.325,11.325,0,0,1,21.895,47.587v4.491H23.4V47.587A11.325,11.325,0,0,1,33.936,58.119H29.444v1.51h4.491A11.325,11.325,0,0,1,23.4,70.16V65.668Zm21.752-6.795A24.99,24.99,0,0,1,30.638,68.9a12.808,12.808,0,0,0,4.808-9.273h6.078v-1.51H35.446a12.808,12.808,0,0,0-4.808-9.273A24.99,24.99,0,0,1,43.646,58.874Z" transform="translate(0 -39.999)" fill="#fff"/>
        </g>
      </g>
      <g id="Group_951" data-name="Group 951" transform="translate(17.365 53.589)">
        <g id="Group_950" data-name="Group 950" transform="translate(0 0)">
          <path id="Path_11024" data-name="Path 11024" d="M189.284,184a5.285,5.285,0,1,0,5.285,5.285A5.285,5.285,0,0,0,189.284,184Zm0,9.06a3.775,3.775,0,1,1,3.775-3.775A3.775,3.775,0,0,1,189.284,193.059Z" transform="translate(-183.999 -183.999)" fill="#fff"/>
        </g>
      </g>
      <g id="Group_953" data-name="Group 953" transform="translate(3.775 39.999)">
        <g id="Group_952" data-name="Group 952">
          <path id="Path_11025" data-name="Path 11025" d="M40.754,40a.755.755,0,0,0-.755.755v6.04h1.51V41.509h5.285V40Z" transform="translate(-39.999 -39.999)" fill="#fff"/>
        </g>
      </g>
      <g id="Group_955" data-name="Group 955" transform="translate(34.729 39.999)">
        <g id="Group_954" data-name="Group 954">
          <path id="Path_11026" data-name="Path 11026" d="M374.039,40H368v1.51h5.285v5.285h1.51v-6.04A.755.755,0,0,0,374.039,40Z" transform="translate(-367.999 -39.999)" fill="#fff"/>
        </g>
      </g>
      <g id="Group_957" data-name="Group 957" transform="translate(34.729 70.953)">
        <g id="Group_956" data-name="Group 956">
          <path id="Path_11027" data-name="Path 11027" d="M373.284,368v5.285H368v1.51h6.04a.755.755,0,0,0,.755-.755V368Z" transform="translate(-367.999 -367.999)" fill="#fff"/>
        </g>
      </g>
      <g id="Group_959" data-name="Group 959" transform="translate(3.775 70.953)">
        <g id="Group_958" data-name="Group 958">
          <path id="Path_11028" data-name="Path 11028" d="M41.509,373.284V368H40v6.04a.755.755,0,0,0,.755.755h6.04v-1.51Z" transform="translate(-39.999 -367.999)" fill="#fff"/>
        </g>
      </g>
    </g>
  </g>
</svg>
