<svg xmlns="http://www.w3.org/2000/svg" width="86" height="84" viewBox="0 0 86 84">
  <g id="Group_18" data-name="Group 18" transform="translate(-1367 -1125)">
    <g id="Ellipse_3" data-name="Ellipse 3" transform="translate(1367 1125)" fill="#fafafa" stroke="#115faf" stroke-linecap="round" stroke-width="2">
      <circle cx="42" cy="42" r="42" stroke="none"/>
      <circle cx="42" cy="42" r="41" fill="none"/>
    </g>
    <g id="Group_19" data-name="Group 19" transform="translate(1372.733 1125)">
      <ellipse id="Ellipse_2" data-name="Ellipse 2" cx="40" cy="39.5" rx="40" ry="39.5" transform="translate(0.267)" fill="#115faf"/>
      <path id="target" d="M65.687,19.372a.9.9,0,0,0-.671-.63l-5.537-1.251-1.251-5.537a.9.9,0,0,0-1.52-.439l-6.368,6.369a25.766,25.766,0,1,0,8.749,8.749l6.371-6.371a.9.9,0,0,0,.228-.89Zm-4.7,20.576A23.958,23.958,0,1,1,49.021,19.2L46.1,22.129a.9.9,0,0,0-.07.09,19.91,19.91,0,1,0,8.722,8.734.891.891,0,0,0,.094-.077l2.925-2.925a23.878,23.878,0,0,1,3.218,12ZM52.6,30.8a18.051,18.051,0,1,1-6.436-6.443l.951,4.215-.913.913a13.954,13.954,0,1,0,1.278,1.278l.913-.913Zm-11.7,9.145a3.9,3.9,0,1,1-1.856-3.307L36.385,39.31a.9.9,0,1,0,1.278,1.277l2.668-2.668A3.855,3.855,0,0,1,40.909,39.948Zm-.556-4.607a5.715,5.715,0,1,0,1.277,1.278L46.2,32.045a12.138,12.138,0,1,1-1.277-1.278ZM57.31,25.854l-3.391,3.39-.509-.115-.02,0-4.525-1.019-1.14-5.051,9.1-9.1,1.016,4.495a.9.9,0,0,0,.683.683l4.495,1.016Z" transform="translate(2.006 0.778)" fill="#fff"/>
    </g>
  </g>
</svg>
